<mxfile host="Electron" agent="Mozilla/5.0 (Macintosh; Intel Mac OS X 10_15_7) AppleWebKit/537.36 (KHTML, like Gecko) draw.io/26.1.1 Chrome/132.0.6834.210 Electron/34.3.3 Safari/537.36" version="26.1.1">
  <diagram name="Page-1" id="64c3da0e-402f-94eb-ee01-a36477274f13">
    <mxGraphModel dx="3034" dy="2230" grid="1" gridSize="10" guides="1" tooltips="1" connect="1" arrows="1" fold="1" page="1" pageScale="1" pageWidth="1169" pageHeight="826" background="none" math="0" shadow="0">
      <root>
        <mxCell id="0" />
        <mxCell id="1" parent="0" />
        <mxCell id="2" value="&#xa;ShepSafe&#xa;&#xa;Jose Gonzalves&#xa;&#xa;R1 750 000" style="whiteSpace=wrap;rounded=0;shadow=1;fontStyle=1;fontSize=24;verticalAlign=top;" parent="1" vertex="1">
          <mxGeometry x="1820" y="-190" width="340" height="200" as="geometry" />
        </mxCell>
        <mxCell id="3" value="Real‑Time Crime Alerts &#xa;&#xa;Quellon Naicker&#xa;&#xa;R350 000" style="whiteSpace=wrap;rounded=0;shadow=1;fontStyle=1;fontSize=14;verticalAlign=top;spacingTop=9;" parent="1" vertex="1">
          <mxGeometry x="-410" y="170" width="160" height="110" as="geometry" />
        </mxCell>
        <mxCell id="4" value="Emergency Help Request &#xa;&#xa;Ayushkar Rami&#xa;&#xa;R275 000" style="whiteSpace=wrap;rounded=0;shadow=1;fontStyle=1;fontSize=14;verticalAlign=top;" parent="1" vertex="1">
          <mxGeometry x="750" y="170" width="160" height="110" as="geometry" />
        </mxCell>
        <mxCell id="0IvkRlyViA5ZiD1WAOKp-245" value="" style="edgeStyle=orthogonalEdgeStyle;rounded=0;orthogonalLoop=1;jettySize=auto;html=1;" edge="1" parent="1" source="10" target="q_rycZMIICY1mJJJQBHf-242">
          <mxGeometry relative="1" as="geometry" />
        </mxCell>
        <mxCell id="0IvkRlyViA5ZiD1WAOKp-246" value="" style="edgeStyle=orthogonalEdgeStyle;rounded=0;orthogonalLoop=1;jettySize=auto;html=1;" edge="1" parent="1" source="10" target="q_rycZMIICY1mJJJQBHf-242">
          <mxGeometry relative="1" as="geometry" />
        </mxCell>
        <mxCell id="10" value="Define Alert Rules &amp; Data Sources&#xa;&#xa;Quellon Naicker&#xa;&#xa;R140 000" style="whiteSpace=wrap;rounded=0;shadow=1;fontStyle=0;verticalAlign=top;" parent="1" vertex="1">
          <mxGeometry x="-674" y="400" width="120" height="100" as="geometry" />
        </mxCell>
        <mxCell id="103" value="" style="edgeStyle=elbowEdgeStyle;elbow=vertical;rounded=0;fontColor=#000000;endArrow=none;endFill=0;strokeWidth=8;" parent="1" target="10" edge="1">
          <mxGeometry width="100" height="100" relative="1" as="geometry">
            <mxPoint x="-330" y="320.00000000000045" as="sourcePoint" />
            <mxPoint x="-150" y="260" as="targetPoint" />
          </mxGeometry>
        </mxCell>
        <mxCell id="104" value="" style="edgeStyle=elbowEdgeStyle;elbow=vertical;rounded=0;fontColor=#000000;endArrow=none;endFill=0;strokeWidth=8;exitX=0.5;exitY=1;exitDx=0;exitDy=0;" parent="1" source="3" edge="1">
          <mxGeometry width="100" height="100" relative="1" as="geometry">
            <mxPoint x="-330" y="320.00000000000045" as="sourcePoint" />
            <mxPoint x="-50" y="400" as="targetPoint" />
            <Array as="points">
              <mxPoint x="-190" y="360" />
            </Array>
          </mxGeometry>
        </mxCell>
        <mxCell id="116" value="" style="edgeStyle=elbowEdgeStyle;elbow=vertical;rounded=0;fontColor=#000000;endArrow=none;endFill=0;strokeWidth=8;" parent="1" edge="1">
          <mxGeometry width="100" height="100" relative="1" as="geometry">
            <mxPoint x="830" y="320.00000000000045" as="sourcePoint" />
            <mxPoint x="520" y="400" as="targetPoint" />
            <Array as="points">
              <mxPoint x="670" y="340" />
            </Array>
          </mxGeometry>
        </mxCell>
        <mxCell id="117" value="" style="edgeStyle=elbowEdgeStyle;elbow=vertical;rounded=0;fontColor=#000000;endArrow=none;endFill=0;strokeWidth=8;exitX=0.5;exitY=1;exitDx=0;exitDy=0;" parent="1" source="4" edge="1">
          <mxGeometry width="100" height="100" relative="1" as="geometry">
            <mxPoint x="830" y="320" as="sourcePoint" />
            <mxPoint x="1130" y="400" as="targetPoint" />
          </mxGeometry>
        </mxCell>
        <mxCell id="221" value="" style="edgeStyle=elbowEdgeStyle;elbow=vertical;rounded=0;fontColor=#000000;endArrow=none;endFill=0;strokeWidth=8;" parent="1" edge="1">
          <mxGeometry width="100" height="100" relative="1" as="geometry">
            <mxPoint x="1990" y="330.00000000000045" as="sourcePoint" />
            <mxPoint x="1720" y="400" as="targetPoint" />
            <Array as="points">
              <mxPoint x="1860" y="360" />
            </Array>
          </mxGeometry>
        </mxCell>
        <mxCell id="222" value="" style="edgeStyle=elbowEdgeStyle;elbow=vertical;rounded=0;fontColor=#000000;endArrow=none;endFill=0;strokeWidth=8;exitX=0.5;exitY=1;exitDx=0;exitDy=0;" parent="1" source="0IvkRlyViA5ZiD1WAOKp-236" edge="1">
          <mxGeometry width="100" height="100" relative="1" as="geometry">
            <mxPoint x="1990" y="330.00000000000045" as="sourcePoint" />
            <mxPoint x="2280" y="400" as="targetPoint" />
            <Array as="points">
              <mxPoint x="2140" y="360" />
            </Array>
          </mxGeometry>
        </mxCell>
        <mxCell id="223" value="" style="edgeStyle=elbowEdgeStyle;elbow=vertical;rounded=0;fontColor=#000000;endArrow=none;endFill=0;strokeWidth=8;strokeColor=#000000;" parent="1" edge="1">
          <mxGeometry width="100" height="100" relative="1" as="geometry">
            <mxPoint x="3160" y="300" as="sourcePoint" />
            <mxPoint x="2850" y="400" as="targetPoint" />
            <Array as="points">
              <mxPoint x="3010" y="340" />
            </Array>
          </mxGeometry>
        </mxCell>
        <mxCell id="224" value="" style="edgeStyle=elbowEdgeStyle;elbow=vertical;rounded=0;fontColor=#000000;endArrow=none;endFill=0;strokeWidth=8;strokeColor=#000000;exitX=0.5;exitY=1;exitDx=0;exitDy=0;" parent="1" source="0IvkRlyViA5ZiD1WAOKp-239" edge="1">
          <mxGeometry width="100" height="100" relative="1" as="geometry">
            <mxPoint x="3160" y="300" as="sourcePoint" />
            <mxPoint x="3397" y="400" as="targetPoint" />
            <Array as="points" />
          </mxGeometry>
        </mxCell>
        <mxCell id="225" value="" style="edgeStyle=elbowEdgeStyle;elbow=vertical;rounded=0;fontColor=#000000;endArrow=none;endFill=0;strokeWidth=8;strokeColor=#000000;" parent="1" edge="1">
          <mxGeometry width="100" height="100" relative="1" as="geometry">
            <mxPoint x="4280" y="280" as="sourcePoint" />
            <mxPoint x="4000" y="400" as="targetPoint" />
          </mxGeometry>
        </mxCell>
        <mxCell id="226" value="" style="edgeStyle=elbowEdgeStyle;elbow=vertical;rounded=0;fontColor=#000000;endArrow=none;endFill=0;strokeWidth=8;strokeColor=#000000;" parent="1" edge="1">
          <mxGeometry width="100" height="100" relative="1" as="geometry">
            <mxPoint x="4280" y="290" as="sourcePoint" />
            <mxPoint x="4600.000000000001" y="400" as="targetPoint" />
            <Array as="points">
              <mxPoint x="4450" y="340" />
            </Array>
          </mxGeometry>
        </mxCell>
        <mxCell id="229" value="" style="edgeStyle=elbowEdgeStyle;elbow=vertical;rounded=0;fontColor=#000000;endArrow=none;endFill=0;strokeWidth=8;strokeColor=#000000;" parent="1" source="2" target="3" edge="1">
          <mxGeometry width="100" height="100" relative="1" as="geometry">
            <mxPoint x="540" y="140" as="sourcePoint" />
            <mxPoint x="640" y="40" as="targetPoint" />
          </mxGeometry>
        </mxCell>
        <mxCell id="230" value="" style="edgeStyle=elbowEdgeStyle;elbow=vertical;rounded=0;fontColor=#000000;endArrow=none;endFill=0;strokeWidth=8;strokeColor=#000000;exitX=0.5;exitY=1;exitDx=0;exitDy=0;" parent="1" source="2" target="4" edge="1">
          <mxGeometry width="100" height="100" relative="1" as="geometry">
            <mxPoint x="1630" y="10" as="sourcePoint" />
            <mxPoint x="730" y="50" as="targetPoint" />
          </mxGeometry>
        </mxCell>
        <mxCell id="231" value="" style="edgeStyle=elbowEdgeStyle;elbow=vertical;rounded=0;fontColor=#000000;endArrow=none;endFill=0;strokeWidth=8;strokeColor=#000000;entryX=0.5;entryY=0;entryDx=0;entryDy=0;" parent="1" edge="1">
          <mxGeometry width="100" height="100" relative="1" as="geometry">
            <mxPoint x="1120" y="90" as="sourcePoint" />
            <mxPoint x="1990.0000000000005" y="170" as="targetPoint" />
            <Array as="points">
              <mxPoint x="1420" y="90" />
            </Array>
          </mxGeometry>
        </mxCell>
        <mxCell id="q_rycZMIICY1mJJJQBHf-233" value="&lt;b&gt;&lt;font style=&quot;font-size: 18px;&quot;&gt;Level 1&lt;/font&gt;&lt;/b&gt;" style="text;html=1;align=center;verticalAlign=middle;whiteSpace=wrap;rounded=0;" parent="1" vertex="1">
          <mxGeometry x="-1060" y="170" width="80" height="30" as="geometry" />
        </mxCell>
        <mxCell id="q_rycZMIICY1mJJJQBHf-234" value="&lt;b&gt;&lt;font style=&quot;font-size: 18px;&quot;&gt;Level 2&lt;/font&gt;&lt;/b&gt;" style="text;html=1;align=center;verticalAlign=middle;whiteSpace=wrap;rounded=0;" parent="1" vertex="1">
          <mxGeometry x="-1060" y="398" width="80" height="30" as="geometry" />
        </mxCell>
        <mxCell id="q_rycZMIICY1mJJJQBHf-235" value="&lt;b&gt;&lt;font style=&quot;font-size: 18px;&quot;&gt;Level 3&lt;/font&gt;&lt;/b&gt;" style="text;html=1;align=center;verticalAlign=middle;whiteSpace=wrap;rounded=0;" parent="1" vertex="1">
          <mxGeometry x="-1060" y="565" width="80" height="30" as="geometry" />
        </mxCell>
        <mxCell id="q_rycZMIICY1mJJJQBHf-241" value="Meet CPF / Police &amp; list alert types&#xa;&#xa;Quellon Naicker&#xa;&#xa;R50 000" style="whiteSpace=wrap;rounded=0;shadow=1;spacingTop=11;spacing=1;spacingBottom=12;verticalAlign=middle;fontStyle=0" parent="1" vertex="1">
          <mxGeometry x="-860" y="570" width="120" height="110" as="geometry" />
        </mxCell>
        <mxCell id="q_rycZMIICY1mJJJQBHf-242" value="Draft alert screen wire‑frames&#xa;&#xa;Reece James&#xa;&#xa;R40 000" style="whiteSpace=wrap;rounded=0;shadow=1;verticalAlign=top;fontStyle=0" parent="1" vertex="1">
          <mxGeometry x="-674" y="570" width="120" height="110" as="geometry" />
        </mxCell>
        <mxCell id="q_rycZMIICY1mJJJQBHf-243" value="" style="edgeStyle=elbowEdgeStyle;elbow=vertical;rounded=0;fontColor=#000000;endArrow=none;endFill=0;strokeWidth=8;entryX=0.5;entryY=0;entryDx=0;entryDy=0;" parent="1" source="10" target="q_rycZMIICY1mJJJQBHf-241" edge="1">
          <mxGeometry width="100" height="100" relative="1" as="geometry">
            <mxPoint x="-584" y="460" as="sourcePoint" />
            <mxPoint x="-814" y="530" as="targetPoint" />
            <Array as="points">
              <mxPoint x="-710" y="520" />
            </Array>
          </mxGeometry>
        </mxCell>
        <mxCell id="q_rycZMIICY1mJJJQBHf-244" value="" style="edgeStyle=elbowEdgeStyle;elbow=vertical;rounded=0;fontColor=#000000;endArrow=none;endFill=0;strokeWidth=8;entryX=0.5;entryY=0;entryDx=0;entryDy=0;exitX=0.5;exitY=1;exitDx=0;exitDy=0;" parent="1" source="10" edge="1" target="q_rycZMIICY1mJJJQBHf-253">
          <mxGeometry width="100" height="100" relative="1" as="geometry">
            <mxPoint x="-614" y="480" as="sourcePoint" />
            <mxPoint x="-434" y="530" as="targetPoint" />
            <Array as="points">
              <mxPoint x="-520" y="520" />
            </Array>
          </mxGeometry>
        </mxCell>
        <mxCell id="q_rycZMIICY1mJJJQBHf-252" value="" style="edgeStyle=elbowEdgeStyle;elbow=vertical;rounded=0;fontColor=#000000;endArrow=none;endFill=0;strokeWidth=8;exitX=0.5;exitY=0;exitDx=0;exitDy=0;" parent="1" source="q_rycZMIICY1mJJJQBHf-242" edge="1">
          <mxGeometry width="100" height="100" relative="1" as="geometry">
            <mxPoint x="-584.45" y="560" as="sourcePoint" />
            <mxPoint x="-614" y="520" as="targetPoint" />
          </mxGeometry>
        </mxCell>
        <mxCell id="q_rycZMIICY1mJJJQBHf-253" value="Approve data sources &amp; rules&#xa;&#xa;Frank Lampard&#xa;&#xa;R50 000" style="whiteSpace=wrap;rounded=0;shadow=1;verticalAlign=top;fontStyle=0" parent="1" vertex="1">
          <mxGeometry x="-494" y="570" width="120" height="110" as="geometry" />
        </mxCell>
        <mxCell id="q_rycZMIICY1mJJJQBHf-254" value="Develop alert&#xa; screens&#xa;&#xa;Jose Gonzalves&#xa;&#xa;R80 000" style="whiteSpace=wrap;rounded=0;shadow=1;verticalAlign=top;fontStyle=0" parent="1" vertex="1">
          <mxGeometry x="-290" y="570" width="120" height="110" as="geometry" />
        </mxCell>
        <mxCell id="q_rycZMIICY1mJJJQBHf-255" value="Test on real phones (2G–4G)&#xa;&#xa;John Terry&#xa;&#xa;R70 000" style="whiteSpace=wrap;rounded=0;shadow=1;verticalAlign=top;fontStyle=0" parent="1" vertex="1">
          <mxGeometry x="-110" y="570" width="120" height="110" as="geometry" />
        </mxCell>
        <mxCell id="q_rycZMIICY1mJJJQBHf-256" value="" style="edgeStyle=elbowEdgeStyle;elbow=vertical;rounded=0;fontColor=#000000;endArrow=none;endFill=0;strokeWidth=8;entryX=0.5;entryY=0;entryDx=0;entryDy=0;exitX=0.5;exitY=1;exitDx=0;exitDy=0;" parent="1" target="q_rycZMIICY1mJJJQBHf-254" edge="1">
          <mxGeometry width="100" height="100" relative="1" as="geometry">
            <mxPoint x="-50" y="460" as="sourcePoint" />
            <mxPoint x="-320" y="530" as="targetPoint" />
          </mxGeometry>
        </mxCell>
        <mxCell id="q_rycZMIICY1mJJJQBHf-257" value="" style="edgeStyle=elbowEdgeStyle;elbow=vertical;rounded=0;fontColor=#000000;endArrow=none;endFill=0;strokeWidth=8;exitX=0.5;exitY=1;exitDx=0;exitDy=0;entryX=0.5;entryY=0;entryDx=0;entryDy=0;" parent="1" target="q_rycZMIICY1mJJJQBHf-259" edge="1">
          <mxGeometry width="100" height="100" relative="1" as="geometry">
            <mxPoint x="-50" y="460" as="sourcePoint" />
            <mxPoint x="60" y="530" as="targetPoint" />
          </mxGeometry>
        </mxCell>
        <mxCell id="q_rycZMIICY1mJJJQBHf-258" value="" style="edgeStyle=elbowEdgeStyle;elbow=vertical;rounded=0;fontColor=#000000;endArrow=none;endFill=0;strokeWidth=8;exitX=0.5;exitY=0;exitDx=0;exitDy=0;" parent="1" source="q_rycZMIICY1mJJJQBHf-255" edge="1">
          <mxGeometry width="100" height="100" relative="1" as="geometry">
            <mxPoint x="-90.44999999999999" y="560" as="sourcePoint" />
            <mxPoint x="-50" y="510" as="targetPoint" />
          </mxGeometry>
        </mxCell>
        <mxCell id="q_rycZMIICY1mJJJQBHf-259" value="Integrate API&#39;s&#xa;&#xa;Frank Lampard&#xa;&#xa;&#xa;R60 000" style="whiteSpace=wrap;rounded=0;shadow=1;verticalAlign=top;spacingTop=5;" parent="1" vertex="1">
          <mxGeometry x="76" y="570" width="120" height="110" as="geometry" />
        </mxCell>
        <mxCell id="q_rycZMIICY1mJJJQBHf-260" value="User interviews on SOS needs&#xa;&#xa;Didier Drogba&#xa;&#xa;R35 000" style="whiteSpace=wrap;rounded=0;shadow=1;verticalAlign=top;fontStyle=0" parent="1" vertex="1">
          <mxGeometry x="280" y="570" width="120" height="110" as="geometry" />
        </mxCell>
        <mxCell id="q_rycZMIICY1mJJJQBHf-261" value="Create SOS button flowchart&#xa;&#xa;Cole Palmer&#xa;&#xa;R40 000" style="whiteSpace=wrap;rounded=0;shadow=1;verticalAlign=top;fontStyle=0" parent="1" vertex="1">
          <mxGeometry x="460" y="570" width="120" height="110" as="geometry" />
        </mxCell>
        <mxCell id="q_rycZMIICY1mJJJQBHf-262" value="" style="edgeStyle=elbowEdgeStyle;elbow=vertical;rounded=0;fontColor=#000000;endArrow=none;endFill=0;strokeWidth=8;entryX=0.5;entryY=0;entryDx=0;entryDy=0;exitX=0.5;exitY=1;exitDx=0;exitDy=0;" parent="1" target="q_rycZMIICY1mJJJQBHf-260" edge="1">
          <mxGeometry width="100" height="100" relative="1" as="geometry">
            <mxPoint x="520" y="460" as="sourcePoint" />
            <mxPoint x="330" y="530" as="targetPoint" />
            <Array as="points">
              <mxPoint x="430" y="520" />
            </Array>
          </mxGeometry>
        </mxCell>
        <mxCell id="q_rycZMIICY1mJJJQBHf-263" value="" style="edgeStyle=elbowEdgeStyle;elbow=vertical;rounded=0;fontColor=#000000;endArrow=none;endFill=0;strokeWidth=8;exitX=0.5;exitY=1;exitDx=0;exitDy=0;entryX=0.5;entryY=0;entryDx=0;entryDy=0;" parent="1" edge="1" target="q_rycZMIICY1mJJJQBHf-265">
          <mxGeometry width="100" height="100" relative="1" as="geometry">
            <mxPoint x="520" y="460" as="sourcePoint" />
            <mxPoint x="710" y="530" as="targetPoint" />
            <Array as="points">
              <mxPoint x="620" y="520" />
            </Array>
          </mxGeometry>
        </mxCell>
        <mxCell id="q_rycZMIICY1mJJJQBHf-264" value="" style="edgeStyle=elbowEdgeStyle;elbow=vertical;rounded=0;fontColor=#000000;endArrow=none;endFill=0;strokeWidth=8;exitX=0.5;exitY=0;exitDx=0;exitDy=0;" parent="1" source="q_rycZMIICY1mJJJQBHf-261" edge="1">
          <mxGeometry width="100" height="100" relative="1" as="geometry">
            <mxPoint x="549.55" y="560" as="sourcePoint" />
            <mxPoint x="520" y="520" as="targetPoint" />
          </mxGeometry>
        </mxCell>
        <mxCell id="q_rycZMIICY1mJJJQBHf-265" value="Confirm response contacts&#xa;&#xa;Ashley Cole&#xa;&#xa;R35 000" style="whiteSpace=wrap;rounded=0;shadow=1;verticalAlign=top;fontStyle=0" parent="1" vertex="1">
          <mxGeometry x="650" y="570" width="120" height="110" as="geometry" />
        </mxCell>
        <mxCell id="q_rycZMIICY1mJJJQBHf-266" value="Develop SOS button in app&#xa;&#xa;Quellon Naicker&#xa;&#xa;R100 000" style="whiteSpace=wrap;rounded=0;shadow=1;verticalAlign=top;fontStyle=0" parent="1" vertex="1">
          <mxGeometry x="860" y="570" width="120" height="110" as="geometry" />
        </mxCell>
        <mxCell id="q_rycZMIICY1mJJJQBHf-267" value="Load‑test message speed&#xa;&#xa;Jose Gonzalves&#xa;&#xa;R30 000" style="whiteSpace=wrap;rounded=0;shadow=1;verticalAlign=top;fontStyle=0" parent="1" vertex="1">
          <mxGeometry x="1070" y="570" width="120" height="110" as="geometry" />
        </mxCell>
        <mxCell id="q_rycZMIICY1mJJJQBHf-268" value="" style="edgeStyle=elbowEdgeStyle;elbow=vertical;rounded=0;fontColor=#000000;endArrow=none;endFill=0;strokeWidth=8;entryX=0.5;entryY=0;entryDx=0;entryDy=0;exitX=0.5;exitY=1;exitDx=0;exitDy=0;" parent="1" target="q_rycZMIICY1mJJJQBHf-266" edge="1">
          <mxGeometry width="100" height="100" relative="1" as="geometry">
            <mxPoint x="1130" y="460" as="sourcePoint" />
            <mxPoint x="840" y="530" as="targetPoint" />
          </mxGeometry>
        </mxCell>
        <mxCell id="q_rycZMIICY1mJJJQBHf-269" value="" style="edgeStyle=elbowEdgeStyle;elbow=vertical;rounded=0;fontColor=#000000;endArrow=none;endFill=0;strokeWidth=8;entryX=0.5;entryY=0;entryDx=0;entryDy=0;exitX=0.5;exitY=1;exitDx=0;exitDy=0;" parent="1" target="q_rycZMIICY1mJJJQBHf-271" edge="1">
          <mxGeometry width="100" height="100" relative="1" as="geometry">
            <mxPoint x="1130" y="460" as="sourcePoint" />
            <mxPoint x="1220" y="530" as="targetPoint" />
          </mxGeometry>
        </mxCell>
        <mxCell id="q_rycZMIICY1mJJJQBHf-270" value="" style="edgeStyle=elbowEdgeStyle;elbow=vertical;rounded=0;fontColor=#000000;endArrow=none;endFill=0;strokeWidth=8;exitX=0.5;exitY=0;exitDx=0;exitDy=0;" parent="1" source="q_rycZMIICY1mJJJQBHf-267" edge="1">
          <mxGeometry width="100" height="100" relative="1" as="geometry">
            <mxPoint x="1099.55" y="560" as="sourcePoint" />
            <mxPoint x="1130" y="510" as="targetPoint" />
          </mxGeometry>
        </mxCell>
        <mxCell id="q_rycZMIICY1mJJJQBHf-271" value="Field drill with patrollers&#xa;&#xa;Frank Lampard&#xa;&#xa;R35 000" style="whiteSpace=wrap;rounded=0;shadow=1;verticalAlign=top;fontStyle=0" parent="1" vertex="1">
          <mxGeometry x="1256" y="570" width="120" height="110" as="geometry" />
        </mxCell>
        <mxCell id="q_rycZMIICY1mJJJQBHf-272" value="Choose chat topics / rooms&#xa;&#xa;Micheal Essien&#xa;&#xa;R40 000" style="whiteSpace=wrap;rounded=0;shadow=1;verticalAlign=top;fontStyle=0" parent="1" vertex="1">
          <mxGeometry x="1480" y="570" width="120" height="110" as="geometry" />
        </mxCell>
        <mxCell id="q_rycZMIICY1mJJJQBHf-273" value="Write house rules &amp; moderation plan&#xa;&#xa;Reece James&#xa;&#xa;R20 000" style="whiteSpace=wrap;rounded=0;shadow=1;verticalAlign=top;fontStyle=0" parent="1" vertex="1">
          <mxGeometry x="1660" y="565" width="120" height="115" as="geometry" />
        </mxCell>
        <mxCell id="q_rycZMIICY1mJJJQBHf-274" value="" style="edgeStyle=elbowEdgeStyle;elbow=vertical;rounded=0;fontColor=#000000;endArrow=none;endFill=0;strokeWidth=8;entryX=0.5;entryY=0;entryDx=0;entryDy=0;exitX=0.5;exitY=1;exitDx=0;exitDy=0;" parent="1" target="q_rycZMIICY1mJJJQBHf-272" edge="1">
          <mxGeometry width="100" height="100" relative="1" as="geometry">
            <mxPoint x="1720" y="460" as="sourcePoint" />
            <mxPoint x="1530" y="530" as="targetPoint" />
            <Array as="points">
              <mxPoint x="1640" y="520" />
            </Array>
          </mxGeometry>
        </mxCell>
        <mxCell id="q_rycZMIICY1mJJJQBHf-275" value="" style="edgeStyle=elbowEdgeStyle;elbow=vertical;rounded=0;fontColor=#000000;endArrow=none;endFill=0;strokeWidth=8;exitX=0.5;exitY=1;exitDx=0;exitDy=0;entryX=0.5;entryY=0;entryDx=0;entryDy=0;" parent="1" edge="1" target="q_rycZMIICY1mJJJQBHf-277">
          <mxGeometry width="100" height="100" relative="1" as="geometry">
            <mxPoint x="1720" y="460" as="sourcePoint" />
            <mxPoint x="1910" y="530" as="targetPoint" />
            <Array as="points">
              <mxPoint x="1820" y="520" />
            </Array>
          </mxGeometry>
        </mxCell>
        <mxCell id="q_rycZMIICY1mJJJQBHf-276" value="" style="edgeStyle=elbowEdgeStyle;elbow=vertical;rounded=0;fontColor=#000000;endArrow=none;endFill=0;strokeWidth=8;exitX=0.5;exitY=0;exitDx=0;exitDy=0;" parent="1" source="q_rycZMIICY1mJJJQBHf-273" edge="1">
          <mxGeometry width="100" height="100" relative="1" as="geometry">
            <mxPoint x="1759.55" y="560" as="sourcePoint" />
            <mxPoint x="1720" y="510" as="targetPoint" />
          </mxGeometry>
        </mxCell>
        <mxCell id="q_rycZMIICY1mJJJQBHf-277" value="Approve interface prototypes&#xa;&#xa;John Terry&#xa;&#xa;R60 000" style="whiteSpace=wrap;rounded=0;shadow=1;verticalAlign=top;" parent="1" vertex="1">
          <mxGeometry x="1840" y="570" width="120" height="110" as="geometry" />
        </mxCell>
        <mxCell id="q_rycZMIICY1mJJJQBHf-278" value="Develop &amp; Integrate chat SDK&#xa;&#xa;Eden Hazrad&#xa;&#xa;R120 000" style="whiteSpace=wrap;rounded=0;shadow=1;fontStyle=0;verticalAlign=top;" parent="1" vertex="1">
          <mxGeometry x="2040" y="570" width="120" height="110" as="geometry" />
        </mxCell>
        <mxCell id="q_rycZMIICY1mJJJQBHf-279" value="Encrypt messaging&#xa;&#xa;&#xa;Quellon Naicker&#xa;&#xa;R30 000" style="whiteSpace=wrap;rounded=0;shadow=1;fontStyle=0;verticalAlign=top;" parent="1" vertex="1">
          <mxGeometry x="2218" y="570" width="120" height="110" as="geometry" />
        </mxCell>
        <mxCell id="q_rycZMIICY1mJJJQBHf-280" value="" style="edgeStyle=elbowEdgeStyle;elbow=vertical;rounded=0;fontColor=#000000;endArrow=none;endFill=0;strokeWidth=8;entryX=0.5;entryY=0;entryDx=0;entryDy=0;exitX=0.5;exitY=1;exitDx=0;exitDy=0;" parent="1" target="q_rycZMIICY1mJJJQBHf-278" edge="1">
          <mxGeometry width="100" height="100" relative="1" as="geometry">
            <mxPoint x="2280" y="460" as="sourcePoint" />
            <mxPoint x="2000" y="530" as="targetPoint" />
          </mxGeometry>
        </mxCell>
        <mxCell id="q_rycZMIICY1mJJJQBHf-281" value="" style="edgeStyle=elbowEdgeStyle;elbow=vertical;rounded=0;fontColor=#000000;endArrow=none;endFill=0;strokeWidth=8;entryX=0.5;entryY=0;entryDx=0;entryDy=0;exitX=0.5;exitY=1;exitDx=0;exitDy=0;" parent="1" target="q_rycZMIICY1mJJJQBHf-283" edge="1">
          <mxGeometry width="100" height="100" relative="1" as="geometry">
            <mxPoint x="2280" y="460" as="sourcePoint" />
            <mxPoint x="2380" y="530" as="targetPoint" />
          </mxGeometry>
        </mxCell>
        <mxCell id="q_rycZMIICY1mJJJQBHf-282" value="" style="edgeStyle=elbowEdgeStyle;elbow=vertical;rounded=0;fontColor=#000000;endArrow=none;endFill=0;strokeWidth=8;exitX=0.5;exitY=0;exitDx=0;exitDy=0;" parent="1" source="q_rycZMIICY1mJJJQBHf-279" edge="1">
          <mxGeometry width="100" height="100" relative="1" as="geometry">
            <mxPoint x="2229.55" y="560" as="sourcePoint" />
            <mxPoint x="2278" y="510" as="targetPoint" />
          </mxGeometry>
        </mxCell>
        <mxCell id="q_rycZMIICY1mJJJQBHf-283" value="Beta test with 100 locals&#xa;&#xa;John Terry&#xa;&#xa;R30 000" style="whiteSpace=wrap;rounded=0;shadow=1;fontStyle=0;verticalAlign=top;" parent="1" vertex="1">
          <mxGeometry x="2400" y="570" width="120" height="110" as="geometry" />
        </mxCell>
        <mxCell id="q_rycZMIICY1mJJJQBHf-292" value="Import 12‑month crime stats&#xa;&#xa;Joe Cole&#xa;&#xa;R70 000" style="whiteSpace=wrap;rounded=0;shadow=1;verticalAlign=top;" parent="1" vertex="1">
          <mxGeometry x="2610" y="570" width="120" height="110" as="geometry" />
        </mxCell>
        <mxCell id="q_rycZMIICY1mJJJQBHf-293" value="Design Data Filtering structure&#xa;&#xa;Arjen Robben&#xa;&#xa;R65 000" style="whiteSpace=wrap;rounded=0;shadow=1;verticalAlign=top;" parent="1" vertex="1">
          <mxGeometry x="2790" y="570" width="120" height="110" as="geometry" />
        </mxCell>
        <mxCell id="q_rycZMIICY1mJJJQBHf-294" value="" style="edgeStyle=elbowEdgeStyle;elbow=vertical;rounded=0;fontColor=#000000;endArrow=none;endFill=0;strokeWidth=8;entryX=0.5;entryY=0;entryDx=0;entryDy=0;exitX=0.5;exitY=1;exitDx=0;exitDy=0;" parent="1" target="q_rycZMIICY1mJJJQBHf-292" edge="1">
          <mxGeometry width="100" height="100" relative="1" as="geometry">
            <mxPoint x="2850" y="460" as="sourcePoint" />
            <mxPoint x="2640" y="530" as="targetPoint" />
            <Array as="points">
              <mxPoint x="2760" y="520" />
            </Array>
          </mxGeometry>
        </mxCell>
        <mxCell id="q_rycZMIICY1mJJJQBHf-295" value="" style="edgeStyle=elbowEdgeStyle;elbow=vertical;rounded=0;fontColor=#000000;endArrow=none;endFill=0;strokeWidth=8;exitX=0.5;exitY=1;exitDx=0;exitDy=0;entryX=0.406;entryY=-0.026;entryDx=0;entryDy=0;entryPerimeter=0;" parent="1" edge="1" target="q_rycZMIICY1mJJJQBHf-297">
          <mxGeometry width="100" height="100" relative="1" as="geometry">
            <mxPoint x="2850" y="460" as="sourcePoint" />
            <mxPoint x="3020" y="530" as="targetPoint" />
            <Array as="points">
              <mxPoint x="2940" y="520" />
            </Array>
          </mxGeometry>
        </mxCell>
        <mxCell id="q_rycZMIICY1mJJJQBHf-296" value="" style="edgeStyle=elbowEdgeStyle;elbow=vertical;rounded=0;fontColor=#000000;endArrow=none;endFill=0;strokeWidth=8;exitX=0.5;exitY=0;exitDx=0;exitDy=0;" parent="1" source="q_rycZMIICY1mJJJQBHf-293" edge="1">
          <mxGeometry width="100" height="100" relative="1" as="geometry">
            <mxPoint x="2869.55" y="520" as="sourcePoint" />
            <mxPoint x="2850" y="480" as="targetPoint" />
          </mxGeometry>
        </mxCell>
        <mxCell id="q_rycZMIICY1mJJJQBHf-297" value="Design Map Layers&#xa;&#xa;&#xa;Fernando Torres&#xa;&#xa;R65 000" style="whiteSpace=wrap;rounded=0;shadow=1;verticalAlign=top;" parent="1" vertex="1">
          <mxGeometry x="2970" y="570" width="120" height="110" as="geometry" />
        </mxCell>
        <mxCell id="q_rycZMIICY1mJJJQBHf-298" value="Develop map layer with zoom &amp; filter&#xa;&#xa;David Luiz&#xa;&#xa;R200 000" style="whiteSpace=wrap;rounded=0;shadow=1;verticalAlign=top;" parent="1" vertex="1">
          <mxGeometry x="3160" y="570" width="120" height="110" as="geometry" />
        </mxCell>
        <mxCell id="q_rycZMIICY1mJJJQBHf-299" value="Add offline‑use caching&#xa;&#xa;Gary Cahil&#xa;&#xa;R70 000" style="whiteSpace=wrap;rounded=0;shadow=1;verticalAlign=top;" parent="1" vertex="1">
          <mxGeometry x="3337" y="570" width="120" height="110" as="geometry" />
        </mxCell>
        <mxCell id="q_rycZMIICY1mJJJQBHf-300" value="" style="edgeStyle=elbowEdgeStyle;elbow=vertical;rounded=0;fontColor=#000000;endArrow=none;endFill=0;strokeWidth=8;entryX=0.5;entryY=0;entryDx=0;entryDy=0;exitX=0.5;exitY=1;exitDx=0;exitDy=0;" parent="1" target="q_rycZMIICY1mJJJQBHf-298" edge="1">
          <mxGeometry width="100" height="100" relative="1" as="geometry">
            <mxPoint x="3397" y="460" as="sourcePoint" />
            <mxPoint x="3140" y="530" as="targetPoint" />
            <Array as="points">
              <mxPoint x="3310" y="520" />
            </Array>
          </mxGeometry>
        </mxCell>
        <mxCell id="q_rycZMIICY1mJJJQBHf-301" value="" style="edgeStyle=elbowEdgeStyle;elbow=vertical;rounded=0;fontColor=#000000;endArrow=none;endFill=0;strokeWidth=8;exitX=0.5;exitY=1;exitDx=0;exitDy=0;entryX=0.5;entryY=0;entryDx=0;entryDy=0;" parent="1" target="q_rycZMIICY1mJJJQBHf-303" edge="1">
          <mxGeometry width="100" height="100" relative="1" as="geometry">
            <mxPoint x="3397" y="460" as="sourcePoint" />
            <mxPoint x="3580" y="520" as="targetPoint" />
            <Array as="points">
              <mxPoint x="3490" y="520" />
            </Array>
          </mxGeometry>
        </mxCell>
        <mxCell id="q_rycZMIICY1mJJJQBHf-302" value="" style="edgeStyle=elbowEdgeStyle;elbow=vertical;rounded=0;fontColor=#000000;endArrow=none;endFill=0;strokeWidth=8;exitX=0.5;exitY=0;exitDx=0;exitDy=0;" parent="1" source="q_rycZMIICY1mJJJQBHf-299" edge="1">
          <mxGeometry width="100" height="100" relative="1" as="geometry">
            <mxPoint x="3369.55" y="560" as="sourcePoint" />
            <mxPoint x="3397" y="530" as="targetPoint" />
          </mxGeometry>
        </mxCell>
        <mxCell id="q_rycZMIICY1mJJJQBHf-303" value="Test Hot-Spot identifier&#xa; &#xa;Ricardo Carvalho&#xa;&#xa;R30 000" style="whiteSpace=wrap;rounded=0;shadow=1;verticalAlign=top;" parent="1" vertex="1">
          <mxGeometry x="3520" y="570" width="120" height="110" as="geometry" />
        </mxCell>
        <mxCell id="q_rycZMIICY1mJJJQBHf-304" value="" style="edgeStyle=elbowEdgeStyle;elbow=vertical;rounded=0;fontColor=#000000;endArrow=none;endFill=0;strokeWidth=8;strokeColor=#000000;entryX=0.5;entryY=0;entryDx=0;entryDy=0;" parent="1" edge="1">
          <mxGeometry width="100" height="100" relative="1" as="geometry">
            <mxPoint x="1990" y="90" as="sourcePoint" />
            <mxPoint x="3160" y="170" as="targetPoint" />
            <Array as="points">
              <mxPoint x="2730" y="90" />
            </Array>
          </mxGeometry>
        </mxCell>
        <mxCell id="q_rycZMIICY1mJJJQBHf-305" value="Gather saftey tips from CPF &amp; SAPS&#xa;&#xa;Callum Hudson-Odoi&#xa;&#xa;R20 000" style="whiteSpace=wrap;rounded=0;shadow=1;verticalAlign=top;" parent="1" vertex="1">
          <mxGeometry x="3760" y="570" width="120" height="110" as="geometry" />
        </mxCell>
        <mxCell id="q_rycZMIICY1mJJJQBHf-306" value="Translate to isiZulu &amp; English&#xa;&#xa;Cesc Fabregas&#xa;&#xa;R60 000" style="whiteSpace=wrap;rounded=0;shadow=1;verticalAlign=top;" parent="1" vertex="1">
          <mxGeometry x="3940" y="570" width="120" height="110" as="geometry" />
        </mxCell>
        <mxCell id="q_rycZMIICY1mJJJQBHf-307" value="" style="edgeStyle=elbowEdgeStyle;elbow=vertical;rounded=0;fontColor=#000000;endArrow=none;endFill=0;strokeWidth=8;entryX=0.5;entryY=0;entryDx=0;entryDy=0;" parent="1" target="q_rycZMIICY1mJJJQBHf-305" edge="1">
          <mxGeometry width="100" height="100" relative="1" as="geometry">
            <mxPoint x="4000" y="460" as="sourcePoint" />
            <mxPoint x="3800" y="530.0000000000002" as="targetPoint" />
          </mxGeometry>
        </mxCell>
        <mxCell id="q_rycZMIICY1mJJJQBHf-308" value="" style="edgeStyle=elbowEdgeStyle;elbow=vertical;rounded=0;fontColor=#000000;endArrow=none;endFill=0;strokeWidth=8;entryX=0.5;entryY=0;entryDx=0;entryDy=0;" parent="1" target="q_rycZMIICY1mJJJQBHf-310" edge="1">
          <mxGeometry width="100" height="100" relative="1" as="geometry">
            <mxPoint x="4000" y="460" as="sourcePoint" />
            <mxPoint x="4150" y="530" as="targetPoint" />
          </mxGeometry>
        </mxCell>
        <mxCell id="q_rycZMIICY1mJJJQBHf-309" value="" style="edgeStyle=elbowEdgeStyle;elbow=vertical;rounded=0;fontColor=#000000;endArrow=none;endFill=0;strokeWidth=8;exitX=0.5;exitY=0;exitDx=0;exitDy=0;" parent="1" source="q_rycZMIICY1mJJJQBHf-306" edge="1">
          <mxGeometry width="100" height="100" relative="1" as="geometry">
            <mxPoint x="3999.55" y="560" as="sourcePoint" />
            <mxPoint x="4000" y="510" as="targetPoint" />
          </mxGeometry>
        </mxCell>
        <mxCell id="q_rycZMIICY1mJJJQBHf-310" value="Review by local health &amp; safety&#xa;&#xa;Andre Schurrle&#xa;&#xa;R50 000" style="whiteSpace=wrap;rounded=0;shadow=1;verticalAlign=top;" parent="1" vertex="1">
          <mxGeometry x="4120" y="570" width="120" height="110" as="geometry" />
        </mxCell>
        <mxCell id="q_rycZMIICY1mJJJQBHf-311" value="Develop and load tips into app&#xa;&#xa;Micheal Essien&#xa;&#xa;R80 000" style="whiteSpace=wrap;rounded=0;shadow=1;verticalAlign=top;" parent="1" vertex="1">
          <mxGeometry x="4350" y="570" width="120" height="110" as="geometry" />
        </mxCell>
        <mxCell id="q_rycZMIICY1mJJJQBHf-312" value="Organise Launch Event&#xa;&#xa;Thomas Tuchel&#xa;&#xa;R60 000" style="whiteSpace=wrap;rounded=0;shadow=1;verticalAlign=top;" parent="1" vertex="1">
          <mxGeometry x="4540" y="570" width="120" height="110" as="geometry" />
        </mxCell>
        <mxCell id="q_rycZMIICY1mJJJQBHf-313" value="" style="edgeStyle=elbowEdgeStyle;elbow=vertical;rounded=0;fontColor=#000000;endArrow=none;endFill=0;strokeWidth=8;entryX=0.5;entryY=0;entryDx=0;entryDy=0;exitX=0.5;exitY=1;exitDx=0;exitDy=0;" parent="1" target="q_rycZMIICY1mJJJQBHf-311" edge="1">
          <mxGeometry width="100" height="100" relative="1" as="geometry">
            <mxPoint x="4600.000000000001" y="460" as="sourcePoint" />
            <mxPoint x="4350" y="530" as="targetPoint" />
          </mxGeometry>
        </mxCell>
        <mxCell id="q_rycZMIICY1mJJJQBHf-314" value="" style="edgeStyle=elbowEdgeStyle;elbow=vertical;rounded=0;fontColor=#000000;endArrow=none;endFill=0;strokeWidth=8;entryX=0.5;entryY=0;entryDx=0;entryDy=0;exitX=0.5;exitY=1;exitDx=0;exitDy=0;" parent="1" target="q_rycZMIICY1mJJJQBHf-316" edge="1">
          <mxGeometry width="100" height="100" relative="1" as="geometry">
            <mxPoint x="4600.000000000001" y="460" as="sourcePoint" />
            <mxPoint x="4730" y="530" as="targetPoint" />
          </mxGeometry>
        </mxCell>
        <mxCell id="q_rycZMIICY1mJJJQBHf-315" value="" style="edgeStyle=elbowEdgeStyle;elbow=vertical;rounded=0;fontColor=#000000;endArrow=none;endFill=0;strokeWidth=8;exitX=0.5;exitY=0;exitDx=0;exitDy=0;" parent="1" source="q_rycZMIICY1mJJJQBHf-312" edge="1">
          <mxGeometry width="100" height="100" relative="1" as="geometry">
            <mxPoint x="4579.55" y="560" as="sourcePoint" />
            <mxPoint x="4600" y="500" as="targetPoint" />
          </mxGeometry>
        </mxCell>
        <mxCell id="q_rycZMIICY1mJJJQBHf-316" value="Promote via Online Campaigns&#xa;&#xa;Jose Mourinho&#xa;&#xa;R55 000" style="whiteSpace=wrap;rounded=0;shadow=1;verticalAlign=top;" parent="1" vertex="1">
          <mxGeometry x="4730" y="570" width="120" height="110" as="geometry" />
        </mxCell>
        <mxCell id="q_rycZMIICY1mJJJQBHf-317" value="" style="edgeStyle=elbowEdgeStyle;elbow=vertical;rounded=0;fontColor=#000000;endArrow=none;endFill=0;strokeWidth=8;strokeColor=#000000;entryX=0.5;entryY=0;entryDx=0;entryDy=0;" parent="1" edge="1">
          <mxGeometry width="100" height="100" relative="1" as="geometry">
            <mxPoint x="3160" y="90" as="sourcePoint" />
            <mxPoint x="4280" y="170" as="targetPoint" />
            <Array as="points">
              <mxPoint x="3857" y="90" />
            </Array>
          </mxGeometry>
        </mxCell>
        <mxCell id="q_rycZMIICY1mJJJQBHf-319" value="" style="endArrow=none;html=1;rounded=0;entryX=1;entryY=0.5;entryDx=0;entryDy=0;exitX=0;exitY=0.5;exitDx=0;exitDy=0;" parent="1" edge="1">
          <mxGeometry width="50" height="50" relative="1" as="geometry">
            <mxPoint x="1820.0000000000005" y="-120" as="sourcePoint" />
            <mxPoint x="2160" y="-120" as="targetPoint" />
          </mxGeometry>
        </mxCell>
        <mxCell id="q_rycZMIICY1mJJJQBHf-321" value="&lt;b&gt;&lt;font style=&quot;font-size: 20px;&quot;&gt;1.0&lt;/font&gt;&lt;/b&gt;" style="text;html=1;align=center;verticalAlign=middle;whiteSpace=wrap;rounded=0;" parent="1" vertex="1">
          <mxGeometry x="-480" y="170" width="60" height="30" as="geometry" />
        </mxCell>
        <mxCell id="q_rycZMIICY1mJJJQBHf-322" value="&lt;b&gt;&lt;font style=&quot;font-size: 20px;&quot;&gt;2.0&lt;/font&gt;&lt;/b&gt;" style="text;html=1;align=center;verticalAlign=middle;whiteSpace=wrap;rounded=0;" parent="1" vertex="1">
          <mxGeometry x="680" y="170" width="60" height="30" as="geometry" />
        </mxCell>
        <mxCell id="q_rycZMIICY1mJJJQBHf-323" value="&lt;b&gt;&lt;font style=&quot;font-size: 20px;&quot;&gt;3.0&lt;/font&gt;&lt;/b&gt;" style="text;html=1;align=center;verticalAlign=middle;whiteSpace=wrap;rounded=0;" parent="1" vertex="1">
          <mxGeometry x="1840" y="170" width="60" height="30" as="geometry" />
        </mxCell>
        <mxCell id="q_rycZMIICY1mJJJQBHf-324" value="&lt;b&gt;&lt;font style=&quot;font-size: 20px;&quot;&gt;4.0&lt;/font&gt;&lt;/b&gt;" style="text;html=1;align=center;verticalAlign=middle;whiteSpace=wrap;rounded=0;" parent="1" vertex="1">
          <mxGeometry x="3020" y="170" width="60" height="30" as="geometry" />
        </mxCell>
        <mxCell id="q_rycZMIICY1mJJJQBHf-325" value="&lt;b&gt;&lt;font style=&quot;font-size: 20px;&quot;&gt;5.0&lt;/font&gt;&lt;/b&gt;" style="text;html=1;align=center;verticalAlign=middle;whiteSpace=wrap;rounded=0;" parent="1" vertex="1">
          <mxGeometry x="4140" y="170" width="60" height="30" as="geometry" />
        </mxCell>
        <mxCell id="q_rycZMIICY1mJJJQBHf-326" value="&lt;b&gt;&lt;font style=&quot;font-size: 20px;&quot;&gt;1.1&lt;/font&gt;&lt;/b&gt;" style="text;html=1;align=center;verticalAlign=middle;whiteSpace=wrap;rounded=0;" parent="1" vertex="1">
          <mxGeometry x="-734" y="400" width="60" height="30" as="geometry" />
        </mxCell>
        <mxCell id="q_rycZMIICY1mJJJQBHf-327" value="&lt;b&gt;&lt;font style=&quot;font-size: 20px;&quot;&gt;1.2&lt;/font&gt;&lt;/b&gt;" style="text;html=1;align=center;verticalAlign=middle;whiteSpace=wrap;rounded=0;" parent="1" vertex="1">
          <mxGeometry x="-210" y="400" width="60" height="30" as="geometry" />
        </mxCell>
        <mxCell id="q_rycZMIICY1mJJJQBHf-328" value="&lt;b&gt;&lt;font style=&quot;font-size: 20px;&quot;&gt;2.1&lt;/font&gt;&lt;/b&gt;" style="text;html=1;align=center;verticalAlign=middle;whiteSpace=wrap;rounded=0;" parent="1" vertex="1">
          <mxGeometry x="400" y="400" width="60" height="30" as="geometry" />
        </mxCell>
        <mxCell id="q_rycZMIICY1mJJJQBHf-329" value="&lt;b&gt;&lt;font style=&quot;font-size: 20px;&quot;&gt;2.2&lt;/font&gt;&lt;/b&gt;" style="text;html=1;align=center;verticalAlign=middle;whiteSpace=wrap;rounded=0;" parent="1" vertex="1">
          <mxGeometry x="980" y="400" width="60" height="30" as="geometry" />
        </mxCell>
        <mxCell id="q_rycZMIICY1mJJJQBHf-330" value="&lt;b&gt;&lt;font style=&quot;font-size: 20px;&quot;&gt;1.1.1&lt;/font&gt;&lt;/b&gt;" style="text;html=1;align=center;verticalAlign=middle;whiteSpace=wrap;rounded=0;" parent="1" vertex="1">
          <mxGeometry x="-920" y="570" width="60" height="30" as="geometry" />
        </mxCell>
        <mxCell id="q_rycZMIICY1mJJJQBHf-331" value="&lt;b&gt;&lt;font style=&quot;font-size: 20px;&quot;&gt;1.1.2&lt;/font&gt;&lt;/b&gt;" style="text;html=1;align=center;verticalAlign=middle;whiteSpace=wrap;rounded=0;" parent="1" vertex="1">
          <mxGeometry x="-734" y="570" width="60" height="30" as="geometry" />
        </mxCell>
        <mxCell id="q_rycZMIICY1mJJJQBHf-332" value="&lt;b&gt;&lt;font style=&quot;font-size: 20px;&quot;&gt;1.1.3&lt;/font&gt;&lt;/b&gt;" style="text;html=1;align=center;verticalAlign=middle;whiteSpace=wrap;rounded=0;" parent="1" vertex="1">
          <mxGeometry x="-554" y="570" width="60" height="30" as="geometry" />
        </mxCell>
        <mxCell id="q_rycZMIICY1mJJJQBHf-333" value="&lt;b&gt;&lt;font style=&quot;font-size: 20px;&quot;&gt;1.2.1&lt;/font&gt;&lt;/b&gt;" style="text;html=1;align=center;verticalAlign=middle;whiteSpace=wrap;rounded=0;" parent="1" vertex="1">
          <mxGeometry x="-350" y="570" width="60" height="30" as="geometry" />
        </mxCell>
        <mxCell id="q_rycZMIICY1mJJJQBHf-334" value="&lt;b&gt;&lt;font style=&quot;font-size: 20px;&quot;&gt;1.2.2&lt;/font&gt;&lt;/b&gt;" style="text;html=1;align=center;verticalAlign=middle;whiteSpace=wrap;rounded=0;" parent="1" vertex="1">
          <mxGeometry x="-170" y="570" width="60" height="30" as="geometry" />
        </mxCell>
        <mxCell id="q_rycZMIICY1mJJJQBHf-335" value="&lt;b&gt;&lt;font style=&quot;font-size: 20px;&quot;&gt;1.2.3&lt;/font&gt;&lt;/b&gt;" style="text;html=1;align=center;verticalAlign=middle;whiteSpace=wrap;rounded=0;" parent="1" vertex="1">
          <mxGeometry x="16" y="570" width="60" height="30" as="geometry" />
        </mxCell>
        <mxCell id="q_rycZMIICY1mJJJQBHf-336" value="&lt;b&gt;&lt;font style=&quot;font-size: 20px;&quot;&gt;2.1.1&lt;/font&gt;&lt;/b&gt;" style="text;html=1;align=center;verticalAlign=middle;whiteSpace=wrap;rounded=0;" parent="1" vertex="1">
          <mxGeometry x="220" y="570" width="60" height="30" as="geometry" />
        </mxCell>
        <mxCell id="q_rycZMIICY1mJJJQBHf-337" value="&lt;b&gt;&lt;font style=&quot;font-size: 20px;&quot;&gt;2.1.2&lt;/font&gt;&lt;/b&gt;" style="text;html=1;align=center;verticalAlign=middle;whiteSpace=wrap;rounded=0;" parent="1" vertex="1">
          <mxGeometry x="400" y="570" width="60" height="30" as="geometry" />
        </mxCell>
        <mxCell id="q_rycZMIICY1mJJJQBHf-338" value="&lt;b&gt;&lt;font style=&quot;font-size: 20px;&quot;&gt;2.1.3&lt;/font&gt;&lt;/b&gt;" style="text;html=1;align=center;verticalAlign=middle;whiteSpace=wrap;rounded=0;" parent="1" vertex="1">
          <mxGeometry x="586" y="570" width="60" height="30" as="geometry" />
        </mxCell>
        <mxCell id="q_rycZMIICY1mJJJQBHf-339" value="&lt;b&gt;&lt;font style=&quot;font-size: 20px;&quot;&gt;2.2.1&lt;/font&gt;&lt;/b&gt;" style="text;html=1;align=center;verticalAlign=middle;whiteSpace=wrap;rounded=0;" parent="1" vertex="1">
          <mxGeometry x="800" y="580" width="60" height="30" as="geometry" />
        </mxCell>
        <mxCell id="q_rycZMIICY1mJJJQBHf-340" value="&lt;b&gt;&lt;font style=&quot;font-size: 20px;&quot;&gt;2.2.2&lt;/font&gt;&lt;/b&gt;" style="text;html=1;align=center;verticalAlign=middle;whiteSpace=wrap;rounded=0;" parent="1" vertex="1">
          <mxGeometry x="1000" y="580" width="60" height="30" as="geometry" />
        </mxCell>
        <mxCell id="q_rycZMIICY1mJJJQBHf-341" value="&lt;b&gt;&lt;font style=&quot;font-size: 20px;&quot;&gt;2.2.3&lt;/font&gt;&lt;/b&gt;" style="text;html=1;align=center;verticalAlign=middle;whiteSpace=wrap;rounded=0;" parent="1" vertex="1">
          <mxGeometry x="1196" y="580" width="60" height="30" as="geometry" />
        </mxCell>
        <mxCell id="q_rycZMIICY1mJJJQBHf-342" value="&lt;b&gt;&lt;font style=&quot;font-size: 20px;&quot;&gt;3.1.1&lt;/font&gt;&lt;/b&gt;" style="text;html=1;align=center;verticalAlign=middle;whiteSpace=wrap;rounded=0;" parent="1" vertex="1">
          <mxGeometry x="1420" y="570" width="60" height="30" as="geometry" />
        </mxCell>
        <mxCell id="q_rycZMIICY1mJJJQBHf-343" value="&lt;b&gt;&lt;font style=&quot;font-size: 20px;&quot;&gt;3.1.2&lt;/font&gt;&lt;/b&gt;" style="text;html=1;align=center;verticalAlign=middle;whiteSpace=wrap;rounded=0;" parent="1" vertex="1">
          <mxGeometry x="1600" y="570" width="60" height="30" as="geometry" />
        </mxCell>
        <mxCell id="q_rycZMIICY1mJJJQBHf-344" value="&lt;b&gt;&lt;font style=&quot;font-size: 20px;&quot;&gt;3.1.3&lt;/font&gt;&lt;/b&gt;" style="text;html=1;align=center;verticalAlign=middle;whiteSpace=wrap;rounded=0;" parent="1" vertex="1">
          <mxGeometry x="1780" y="570" width="60" height="30" as="geometry" />
        </mxCell>
        <mxCell id="q_rycZMIICY1mJJJQBHf-345" value="&lt;b&gt;&lt;font style=&quot;font-size: 20px;&quot;&gt;3.2.1&lt;/font&gt;&lt;/b&gt;" style="text;html=1;align=center;verticalAlign=middle;whiteSpace=wrap;rounded=0;" parent="1" vertex="1">
          <mxGeometry x="1980" y="570" width="60" height="30" as="geometry" />
        </mxCell>
        <mxCell id="q_rycZMIICY1mJJJQBHf-346" value="&lt;b&gt;&lt;font style=&quot;font-size: 20px;&quot;&gt;3.2.2&lt;/font&gt;&lt;/b&gt;" style="text;html=1;align=center;verticalAlign=middle;whiteSpace=wrap;rounded=0;" parent="1" vertex="1">
          <mxGeometry x="2160" y="570" width="60" height="30" as="geometry" />
        </mxCell>
        <mxCell id="q_rycZMIICY1mJJJQBHf-347" value="&lt;b&gt;&lt;font style=&quot;font-size: 20px;&quot;&gt;3.2.3&lt;/font&gt;&lt;/b&gt;" style="text;html=1;align=center;verticalAlign=middle;whiteSpace=wrap;rounded=0;" parent="1" vertex="1">
          <mxGeometry x="2340" y="570" width="60" height="30" as="geometry" />
        </mxCell>
        <mxCell id="q_rycZMIICY1mJJJQBHf-348" value="&lt;b&gt;&lt;font style=&quot;font-size: 20px;&quot;&gt;4.1.1&lt;/font&gt;&lt;/b&gt;" style="text;html=1;align=center;verticalAlign=middle;whiteSpace=wrap;rounded=0;" parent="1" vertex="1">
          <mxGeometry x="2550" y="580" width="60" height="30" as="geometry" />
        </mxCell>
        <mxCell id="q_rycZMIICY1mJJJQBHf-349" value="&lt;b&gt;&lt;font style=&quot;font-size: 20px;&quot;&gt;4.1.2&lt;/font&gt;&lt;/b&gt;" style="text;html=1;align=center;verticalAlign=middle;whiteSpace=wrap;rounded=0;" parent="1" vertex="1">
          <mxGeometry x="2730" y="580" width="60" height="30" as="geometry" />
        </mxCell>
        <mxCell id="q_rycZMIICY1mJJJQBHf-350" value="&lt;b&gt;&lt;font style=&quot;font-size: 20px;&quot;&gt;4.1.3&lt;/font&gt;&lt;/b&gt;" style="text;html=1;align=center;verticalAlign=middle;whiteSpace=wrap;rounded=0;" parent="1" vertex="1">
          <mxGeometry x="2910" y="580" width="60" height="30" as="geometry" />
        </mxCell>
        <mxCell id="q_rycZMIICY1mJJJQBHf-351" value="&lt;b&gt;&lt;font style=&quot;font-size: 20px;&quot;&gt;4.2.1&lt;/font&gt;&lt;/b&gt;" style="text;html=1;align=center;verticalAlign=middle;whiteSpace=wrap;rounded=0;" parent="1" vertex="1">
          <mxGeometry x="3100" y="580" width="60" height="30" as="geometry" />
        </mxCell>
        <mxCell id="q_rycZMIICY1mJJJQBHf-352" value="&lt;b&gt;&lt;font style=&quot;font-size: 20px;&quot;&gt;4.2.2&lt;/font&gt;&lt;/b&gt;" style="text;html=1;align=center;verticalAlign=middle;whiteSpace=wrap;rounded=0;" parent="1" vertex="1">
          <mxGeometry x="3280" y="580" width="60" height="30" as="geometry" />
        </mxCell>
        <mxCell id="q_rycZMIICY1mJJJQBHf-353" value="&lt;b&gt;&lt;font style=&quot;font-size: 20px;&quot;&gt;4.2.3&lt;/font&gt;&lt;/b&gt;" style="text;html=1;align=center;verticalAlign=middle;whiteSpace=wrap;rounded=0;" parent="1" vertex="1">
          <mxGeometry x="3460" y="580" width="60" height="30" as="geometry" />
        </mxCell>
        <mxCell id="q_rycZMIICY1mJJJQBHf-354" value="&lt;b&gt;&lt;font style=&quot;font-size: 20px;&quot;&gt;5.1.1&lt;/font&gt;&lt;/b&gt;" style="text;html=1;align=center;verticalAlign=middle;whiteSpace=wrap;rounded=0;" parent="1" vertex="1">
          <mxGeometry x="3700" y="570" width="60" height="30" as="geometry" />
        </mxCell>
        <mxCell id="q_rycZMIICY1mJJJQBHf-355" value="&lt;b&gt;&lt;font style=&quot;font-size: 20px;&quot;&gt;5.1.2&lt;/font&gt;&lt;/b&gt;" style="text;html=1;align=center;verticalAlign=middle;whiteSpace=wrap;rounded=0;" parent="1" vertex="1">
          <mxGeometry x="3880" y="570" width="60" height="30" as="geometry" />
        </mxCell>
        <mxCell id="q_rycZMIICY1mJJJQBHf-356" value="&lt;b&gt;&lt;font style=&quot;font-size: 20px;&quot;&gt;5.1.3&lt;/font&gt;&lt;/b&gt;" style="text;html=1;align=center;verticalAlign=middle;whiteSpace=wrap;rounded=0;" parent="1" vertex="1">
          <mxGeometry x="4060" y="570" width="60" height="30" as="geometry" />
        </mxCell>
        <mxCell id="q_rycZMIICY1mJJJQBHf-357" value="&lt;b&gt;&lt;font style=&quot;font-size: 20px;&quot;&gt;5.2.1&lt;/font&gt;&lt;/b&gt;" style="text;html=1;align=center;verticalAlign=middle;whiteSpace=wrap;rounded=0;" parent="1" vertex="1">
          <mxGeometry x="4290" y="570" width="60" height="30" as="geometry" />
        </mxCell>
        <mxCell id="q_rycZMIICY1mJJJQBHf-358" value="&lt;b&gt;&lt;font style=&quot;font-size: 20px;&quot;&gt;5.2.2&lt;/font&gt;&lt;/b&gt;" style="text;html=1;align=center;verticalAlign=middle;whiteSpace=wrap;rounded=0;" parent="1" vertex="1">
          <mxGeometry x="4480" y="570" width="60" height="30" as="geometry" />
        </mxCell>
        <mxCell id="q_rycZMIICY1mJJJQBHf-359" value="&lt;b&gt;&lt;font style=&quot;font-size: 20px;&quot;&gt;5.2.3&lt;/font&gt;&lt;/b&gt;" style="text;html=1;align=center;verticalAlign=middle;whiteSpace=wrap;rounded=0;" parent="1" vertex="1">
          <mxGeometry x="4676" y="570" width="60" height="30" as="geometry" />
        </mxCell>
        <mxCell id="q_rycZMIICY1mJJJQBHf-360" value="&lt;b&gt;&lt;font style=&quot;font-size: 20px;&quot;&gt;3.1&lt;/font&gt;&lt;/b&gt;" style="text;html=1;align=center;verticalAlign=middle;whiteSpace=wrap;rounded=0;" parent="1" vertex="1">
          <mxGeometry x="1600" y="400" width="60" height="30" as="geometry" />
        </mxCell>
        <mxCell id="q_rycZMIICY1mJJJQBHf-361" value="&lt;b&gt;&lt;font style=&quot;font-size: 20px;&quot;&gt;3.2&lt;/font&gt;&lt;/b&gt;" style="text;html=1;align=center;verticalAlign=middle;whiteSpace=wrap;rounded=0;" parent="1" vertex="1">
          <mxGeometry x="2160" y="400" width="60" height="30" as="geometry" />
        </mxCell>
        <mxCell id="q_rycZMIICY1mJJJQBHf-362" value="&lt;b&gt;&lt;font style=&quot;font-size: 20px;&quot;&gt;4.1&lt;/font&gt;&lt;/b&gt;&lt;span style=&quot;color: rgba(0, 0, 0, 0); font-family: monospace; font-size: 0px; text-align: start; text-wrap-mode: nowrap;&quot;&gt;%3CmxGraphModel%3E%3Croot%3E%3CmxCell%20id%3D%220%22%2F%3E%3CmxCell%20id%3D%221%22%20parent%3D%220%22%2F%3E%3CmxCell%20id%3D%222%22%20value%3D%22%26lt%3Bb%26gt%3B%26lt%3Bfont%20style%3D%26quot%3Bfont-size%3A%2020px%3B%26quot%3B%26gt%3B4.0%26lt%3B%2Ffont%26gt%3B%26lt%3B%2Fb%26gt%3B%22%20style%3D%22text%3Bhtml%3D1%3Balign%3Dcenter%3BverticalAlign%3Dmiddle%3BwhiteSpace%3Dwrap%3Brounded%3D0%3B%22%20vertex%3D%221%22%20parent%3D%221%22%3E%3CmxGeometry%20x%3D%223020%22%20y%3D%22170%22%20width%3D%2260%22%20height%3D%2230%22%20as%3D%22geometry%22%2F%3E%3C%2FmxCell%3E%3C%2Froot%3E%3C%2FmxGraphModel%3E&lt;/span&gt;" style="text;html=1;align=center;verticalAlign=middle;whiteSpace=wrap;rounded=0;" parent="1" vertex="1">
          <mxGeometry x="2730" y="400" width="60" height="30" as="geometry" />
        </mxCell>
        <mxCell id="q_rycZMIICY1mJJJQBHf-363" value="&lt;b&gt;&lt;font style=&quot;font-size: 20px;&quot;&gt;4.2&lt;/font&gt;&lt;/b&gt;" style="text;html=1;align=center;verticalAlign=middle;whiteSpace=wrap;rounded=0;" parent="1" vertex="1">
          <mxGeometry x="3280" y="400" width="60" height="30" as="geometry" />
        </mxCell>
        <mxCell id="q_rycZMIICY1mJJJQBHf-364" value="&lt;span style=&quot;font-size: 20px;&quot;&gt;&lt;b&gt;5.1&lt;/b&gt;&lt;/span&gt;" style="text;html=1;align=center;verticalAlign=middle;whiteSpace=wrap;rounded=0;" parent="1" vertex="1">
          <mxGeometry x="3880" y="400" width="60" height="30" as="geometry" />
        </mxCell>
        <mxCell id="q_rycZMIICY1mJJJQBHf-365" value="&lt;b&gt;&lt;font style=&quot;font-size: 20px;&quot;&gt;5.2&lt;/font&gt;&lt;/b&gt;" style="text;html=1;align=center;verticalAlign=middle;whiteSpace=wrap;rounded=0;" parent="1" vertex="1">
          <mxGeometry x="4470" y="400" width="60" height="30" as="geometry" />
        </mxCell>
        <mxCell id="VyiQQJoztIJzkc0DjLYZ-234" value="" style="endArrow=none;html=1;rounded=0;exitX=0.008;exitY=0.584;exitDx=0;exitDy=0;entryX=0.99;entryY=0.58;entryDx=0;entryDy=0;entryPerimeter=0;exitPerimeter=0;" parent="1" edge="1">
          <mxGeometry width="50" height="50" relative="1" as="geometry">
            <mxPoint x="751.4400000000002" y="215.06" as="sourcePoint" />
            <mxPoint x="908.5600000000001" y="214.61999999999995" as="targetPoint" />
          </mxGeometry>
        </mxCell>
        <mxCell id="VyiQQJoztIJzkc0DjLYZ-235" value="" style="endArrow=none;html=1;rounded=0;exitX=0.008;exitY=0.584;exitDx=0;exitDy=0;exitPerimeter=0;" parent="1" edge="1">
          <mxGeometry width="50" height="50" relative="1" as="geometry">
            <mxPoint x="-410" y="210.25" as="sourcePoint" />
            <mxPoint x="-251" y="210" as="targetPoint" />
          </mxGeometry>
        </mxCell>
        <mxCell id="PgLA_zkWVpAy27lj0P9A-231" value="&lt;b&gt;&lt;font style=&quot;font-size: 18px;&quot;&gt;Level 0&lt;/font&gt;&lt;/b&gt;" style="text;html=1;align=center;verticalAlign=middle;whiteSpace=wrap;rounded=0;" parent="1" vertex="1">
          <mxGeometry x="-1060" y="-110" width="80" height="30" as="geometry" />
        </mxCell>
        <mxCell id="PgLA_zkWVpAy27lj0P9A-232" value="" style="endArrow=none;html=1;rounded=0;exitX=0;exitY=0.5;exitDx=0;exitDy=0;entryX=1;entryY=0.5;entryDx=0;entryDy=0;" parent="1" edge="1">
          <mxGeometry width="50" height="50" relative="1" as="geometry">
            <mxPoint x="-674.0000000000001" y="442.9999999999998" as="sourcePoint" />
            <mxPoint x="-554.0000000000001" y="442.9999999999998" as="targetPoint" />
          </mxGeometry>
        </mxCell>
        <mxCell id="PgLA_zkWVpAy27lj0P9A-233" value="" style="endArrow=none;html=1;rounded=0;exitX=0;exitY=0.5;exitDx=0;exitDy=0;entryX=1;entryY=0.5;entryDx=0;entryDy=0;" parent="1" edge="1">
          <mxGeometry width="50" height="50" relative="1" as="geometry">
            <mxPoint x="-860" y="620" as="sourcePoint" />
            <mxPoint x="-740" y="620" as="targetPoint" />
          </mxGeometry>
        </mxCell>
        <mxCell id="PgLA_zkWVpAy27lj0P9A-234" value="" style="endArrow=none;html=1;rounded=0;exitX=0;exitY=0.5;exitDx=0;exitDy=0;entryX=1;entryY=0.5;entryDx=0;entryDy=0;" parent="1" edge="1">
          <mxGeometry width="50" height="50" relative="1" as="geometry">
            <mxPoint x="-674" y="609.55" as="sourcePoint" />
            <mxPoint x="-554" y="609.55" as="targetPoint" />
          </mxGeometry>
        </mxCell>
        <mxCell id="PgLA_zkWVpAy27lj0P9A-235" value="" style="endArrow=none;html=1;rounded=0;exitX=0;exitY=0.5;exitDx=0;exitDy=0;entryX=1;entryY=0.5;entryDx=0;entryDy=0;" parent="1" edge="1">
          <mxGeometry width="50" height="50" relative="1" as="geometry">
            <mxPoint x="-494" y="609.55" as="sourcePoint" />
            <mxPoint x="-374" y="609.55" as="targetPoint" />
          </mxGeometry>
        </mxCell>
        <mxCell id="PgLA_zkWVpAy27lj0P9A-236" value="" style="endArrow=none;html=1;rounded=0;exitX=0;exitY=0.5;exitDx=0;exitDy=0;entryX=1;entryY=0.5;entryDx=0;entryDy=0;" parent="1" edge="1">
          <mxGeometry width="50" height="50" relative="1" as="geometry">
            <mxPoint x="-290" y="610" as="sourcePoint" />
            <mxPoint x="-170" y="610" as="targetPoint" />
          </mxGeometry>
        </mxCell>
        <mxCell id="PgLA_zkWVpAy27lj0P9A-237" value="" style="endArrow=none;html=1;rounded=0;exitX=0;exitY=0.5;exitDx=0;exitDy=0;entryX=1;entryY=0.5;entryDx=0;entryDy=0;" parent="1" edge="1">
          <mxGeometry width="50" height="50" relative="1" as="geometry">
            <mxPoint x="-110" y="609.55" as="sourcePoint" />
            <mxPoint x="10" y="609.55" as="targetPoint" />
          </mxGeometry>
        </mxCell>
        <mxCell id="PgLA_zkWVpAy27lj0P9A-238" value="" style="endArrow=none;html=1;rounded=0;exitX=0;exitY=0.5;exitDx=0;exitDy=0;entryX=1;entryY=0.5;entryDx=0;entryDy=0;" parent="1" edge="1">
          <mxGeometry width="50" height="50" relative="1" as="geometry">
            <mxPoint x="76" y="600" as="sourcePoint" />
            <mxPoint x="196" y="600" as="targetPoint" />
          </mxGeometry>
        </mxCell>
        <mxCell id="PgLA_zkWVpAy27lj0P9A-239" value="" style="endArrow=none;html=1;rounded=0;exitX=0;exitY=0.5;exitDx=0;exitDy=0;entryX=1;entryY=0.5;entryDx=0;entryDy=0;" parent="1" edge="1">
          <mxGeometry width="50" height="50" relative="1" as="geometry">
            <mxPoint x="280" y="609.55" as="sourcePoint" />
            <mxPoint x="400" y="609.55" as="targetPoint" />
          </mxGeometry>
        </mxCell>
        <mxCell id="PgLA_zkWVpAy27lj0P9A-240" value="" style="endArrow=none;html=1;rounded=0;exitX=0;exitY=0.5;exitDx=0;exitDy=0;entryX=1;entryY=0.5;entryDx=0;entryDy=0;" parent="1" edge="1">
          <mxGeometry width="50" height="50" relative="1" as="geometry">
            <mxPoint x="460" y="609.55" as="sourcePoint" />
            <mxPoint x="580" y="609.55" as="targetPoint" />
          </mxGeometry>
        </mxCell>
        <mxCell id="PgLA_zkWVpAy27lj0P9A-241" value="" style="endArrow=none;html=1;rounded=0;exitX=0;exitY=0.5;exitDx=0;exitDy=0;entryX=1;entryY=0.5;entryDx=0;entryDy=0;" parent="1" edge="1">
          <mxGeometry width="50" height="50" relative="1" as="geometry">
            <mxPoint x="650" y="609.55" as="sourcePoint" />
            <mxPoint x="770" y="609.55" as="targetPoint" />
          </mxGeometry>
        </mxCell>
        <mxCell id="PgLA_zkWVpAy27lj0P9A-242" value="" style="endArrow=none;html=1;rounded=0;exitX=0;exitY=0.5;exitDx=0;exitDy=0;entryX=1;entryY=0.5;entryDx=0;entryDy=0;" parent="1" edge="1">
          <mxGeometry width="50" height="50" relative="1" as="geometry">
            <mxPoint x="860" y="610" as="sourcePoint" />
            <mxPoint x="980" y="610" as="targetPoint" />
          </mxGeometry>
        </mxCell>
        <mxCell id="PgLA_zkWVpAy27lj0P9A-243" value="" style="endArrow=none;html=1;rounded=0;exitX=0;exitY=0.5;exitDx=0;exitDy=0;entryX=1;entryY=0.5;entryDx=0;entryDy=0;" parent="1" edge="1">
          <mxGeometry width="50" height="50" relative="1" as="geometry">
            <mxPoint x="1070" y="610" as="sourcePoint" />
            <mxPoint x="1190" y="610" as="targetPoint" />
          </mxGeometry>
        </mxCell>
        <mxCell id="PgLA_zkWVpAy27lj0P9A-244" value="" style="endArrow=none;html=1;rounded=0;exitX=0;exitY=0.5;exitDx=0;exitDy=0;entryX=1;entryY=0.5;entryDx=0;entryDy=0;" parent="1" edge="1">
          <mxGeometry width="50" height="50" relative="1" as="geometry">
            <mxPoint x="1256" y="609.49" as="sourcePoint" />
            <mxPoint x="1376" y="609.49" as="targetPoint" />
          </mxGeometry>
        </mxCell>
        <mxCell id="PgLA_zkWVpAy27lj0P9A-245" value="" style="endArrow=none;html=1;rounded=0;exitX=0;exitY=0.5;exitDx=0;exitDy=0;entryX=1;entryY=0.5;entryDx=0;entryDy=0;" parent="1" edge="1">
          <mxGeometry width="50" height="50" relative="1" as="geometry">
            <mxPoint x="1480" y="609.55" as="sourcePoint" />
            <mxPoint x="1600" y="609.55" as="targetPoint" />
          </mxGeometry>
        </mxCell>
        <mxCell id="PgLA_zkWVpAy27lj0P9A-246" value="" style="endArrow=none;html=1;rounded=0;exitX=0;exitY=0.5;exitDx=0;exitDy=0;entryX=1;entryY=0.5;entryDx=0;entryDy=0;" parent="1" edge="1">
          <mxGeometry width="50" height="50" relative="1" as="geometry">
            <mxPoint x="1660" y="609.09" as="sourcePoint" />
            <mxPoint x="1780" y="609.09" as="targetPoint" />
          </mxGeometry>
        </mxCell>
        <mxCell id="PgLA_zkWVpAy27lj0P9A-247" value="" style="endArrow=none;html=1;rounded=0;exitX=0;exitY=0.5;exitDx=0;exitDy=0;entryX=1;entryY=0.5;entryDx=0;entryDy=0;" parent="1" edge="1">
          <mxGeometry width="50" height="50" relative="1" as="geometry">
            <mxPoint x="1840" y="610" as="sourcePoint" />
            <mxPoint x="1960" y="610" as="targetPoint" />
          </mxGeometry>
        </mxCell>
        <mxCell id="PgLA_zkWVpAy27lj0P9A-248" value="" style="endArrow=none;html=1;rounded=0;exitX=0;exitY=0.5;exitDx=0;exitDy=0;entryX=1;entryY=0.5;entryDx=0;entryDy=0;" parent="1" edge="1">
          <mxGeometry width="50" height="50" relative="1" as="geometry">
            <mxPoint x="2040" y="609.55" as="sourcePoint" />
            <mxPoint x="2160" y="609.55" as="targetPoint" />
          </mxGeometry>
        </mxCell>
        <mxCell id="PgLA_zkWVpAy27lj0P9A-249" value="" style="endArrow=none;html=1;rounded=0;exitX=0;exitY=0.5;exitDx=0;exitDy=0;entryX=1;entryY=0.5;entryDx=0;entryDy=0;" parent="1" edge="1">
          <mxGeometry width="50" height="50" relative="1" as="geometry">
            <mxPoint x="2218" y="609.09" as="sourcePoint" />
            <mxPoint x="2338" y="609.09" as="targetPoint" />
          </mxGeometry>
        </mxCell>
        <mxCell id="PgLA_zkWVpAy27lj0P9A-250" value="" style="endArrow=none;html=1;rounded=0;exitX=0;exitY=0.5;exitDx=0;exitDy=0;entryX=1;entryY=0.5;entryDx=0;entryDy=0;" parent="1" edge="1">
          <mxGeometry width="50" height="50" relative="1" as="geometry">
            <mxPoint x="2400" y="609.55" as="sourcePoint" />
            <mxPoint x="2520" y="609.55" as="targetPoint" />
          </mxGeometry>
        </mxCell>
        <mxCell id="PgLA_zkWVpAy27lj0P9A-251" value="" style="endArrow=none;html=1;rounded=0;exitX=0;exitY=0.5;exitDx=0;exitDy=0;entryX=1;entryY=0.5;entryDx=0;entryDy=0;" parent="1" edge="1">
          <mxGeometry width="50" height="50" relative="1" as="geometry">
            <mxPoint x="2610" y="610" as="sourcePoint" />
            <mxPoint x="2730" y="610" as="targetPoint" />
          </mxGeometry>
        </mxCell>
        <mxCell id="PgLA_zkWVpAy27lj0P9A-252" value="" style="endArrow=none;html=1;rounded=0;exitX=0;exitY=0.5;exitDx=0;exitDy=0;entryX=1;entryY=0.5;entryDx=0;entryDy=0;" parent="1" edge="1">
          <mxGeometry width="50" height="50" relative="1" as="geometry">
            <mxPoint x="2790" y="609.55" as="sourcePoint" />
            <mxPoint x="2910" y="609.55" as="targetPoint" />
          </mxGeometry>
        </mxCell>
        <mxCell id="PgLA_zkWVpAy27lj0P9A-253" value="" style="endArrow=none;html=1;rounded=0;exitX=0;exitY=0.5;exitDx=0;exitDy=0;entryX=1;entryY=0.5;entryDx=0;entryDy=0;" parent="1" edge="1">
          <mxGeometry width="50" height="50" relative="1" as="geometry">
            <mxPoint x="2970" y="610" as="sourcePoint" />
            <mxPoint x="3090" y="610" as="targetPoint" />
          </mxGeometry>
        </mxCell>
        <mxCell id="PgLA_zkWVpAy27lj0P9A-254" value="" style="endArrow=none;html=1;rounded=0;exitX=0;exitY=0.5;exitDx=0;exitDy=0;entryX=1;entryY=0.5;entryDx=0;entryDy=0;" parent="1" edge="1">
          <mxGeometry width="50" height="50" relative="1" as="geometry">
            <mxPoint x="3160" y="610" as="sourcePoint" />
            <mxPoint x="3280" y="610" as="targetPoint" />
          </mxGeometry>
        </mxCell>
        <mxCell id="PgLA_zkWVpAy27lj0P9A-255" value="" style="endArrow=none;html=1;rounded=0;exitX=0;exitY=0.5;exitDx=0;exitDy=0;entryX=1;entryY=0.5;entryDx=0;entryDy=0;" parent="1" edge="1">
          <mxGeometry width="50" height="50" relative="1" as="geometry">
            <mxPoint x="3337" y="610" as="sourcePoint" />
            <mxPoint x="3457" y="610" as="targetPoint" />
          </mxGeometry>
        </mxCell>
        <mxCell id="PgLA_zkWVpAy27lj0P9A-256" value="" style="endArrow=none;html=1;rounded=0;exitX=0;exitY=0.5;exitDx=0;exitDy=0;entryX=1;entryY=0.5;entryDx=0;entryDy=0;" parent="1" edge="1">
          <mxGeometry width="50" height="50" relative="1" as="geometry">
            <mxPoint x="3520" y="609" as="sourcePoint" />
            <mxPoint x="3640" y="609" as="targetPoint" />
          </mxGeometry>
        </mxCell>
        <mxCell id="PgLA_zkWVpAy27lj0P9A-257" value="" style="endArrow=none;html=1;rounded=0;exitX=0;exitY=0.5;exitDx=0;exitDy=0;entryX=1;entryY=0.5;entryDx=0;entryDy=0;" parent="1" edge="1">
          <mxGeometry width="50" height="50" relative="1" as="geometry">
            <mxPoint x="3760" y="609.55" as="sourcePoint" />
            <mxPoint x="3880" y="609.55" as="targetPoint" />
          </mxGeometry>
        </mxCell>
        <mxCell id="PgLA_zkWVpAy27lj0P9A-258" value="" style="endArrow=none;html=1;rounded=0;exitX=0;exitY=0.5;exitDx=0;exitDy=0;entryX=1;entryY=0.5;entryDx=0;entryDy=0;" parent="1" edge="1">
          <mxGeometry width="50" height="50" relative="1" as="geometry">
            <mxPoint x="3940" y="609" as="sourcePoint" />
            <mxPoint x="4060" y="609" as="targetPoint" />
          </mxGeometry>
        </mxCell>
        <mxCell id="PgLA_zkWVpAy27lj0P9A-259" value="" style="endArrow=none;html=1;rounded=0;exitX=0;exitY=0.5;exitDx=0;exitDy=0;entryX=1;entryY=0.5;entryDx=0;entryDy=0;" parent="1" edge="1">
          <mxGeometry width="50" height="50" relative="1" as="geometry">
            <mxPoint x="4120" y="610" as="sourcePoint" />
            <mxPoint x="4240" y="610" as="targetPoint" />
          </mxGeometry>
        </mxCell>
        <mxCell id="PgLA_zkWVpAy27lj0P9A-260" value="" style="endArrow=none;html=1;rounded=0;exitX=0;exitY=0.5;exitDx=0;exitDy=0;entryX=1;entryY=0.5;entryDx=0;entryDy=0;" parent="1" edge="1">
          <mxGeometry width="50" height="50" relative="1" as="geometry">
            <mxPoint x="4350" y="609" as="sourcePoint" />
            <mxPoint x="4470" y="609" as="targetPoint" />
          </mxGeometry>
        </mxCell>
        <mxCell id="PgLA_zkWVpAy27lj0P9A-261" value="" style="endArrow=none;html=1;rounded=0;exitX=0;exitY=0.5;exitDx=0;exitDy=0;entryX=1;entryY=0.5;entryDx=0;entryDy=0;" parent="1" edge="1">
          <mxGeometry width="50" height="50" relative="1" as="geometry">
            <mxPoint x="4540" y="609.55" as="sourcePoint" />
            <mxPoint x="4660" y="609.55" as="targetPoint" />
          </mxGeometry>
        </mxCell>
        <mxCell id="PgLA_zkWVpAy27lj0P9A-262" value="" style="endArrow=none;html=1;rounded=0;exitX=0;exitY=0.5;exitDx=0;exitDy=0;entryX=1;entryY=0.5;entryDx=0;entryDy=0;" parent="1" edge="1">
          <mxGeometry width="50" height="50" relative="1" as="geometry">
            <mxPoint x="4730" y="609.55" as="sourcePoint" />
            <mxPoint x="4850" y="609.55" as="targetPoint" />
          </mxGeometry>
        </mxCell>
        <mxCell id="0IvkRlyViA5ZiD1WAOKp-232" value="" style="endArrow=none;html=1;rounded=0;entryX=1;entryY=0.5;entryDx=0;entryDy=0;exitX=0;exitY=0.5;exitDx=0;exitDy=0;" edge="1" parent="1">
          <mxGeometry width="50" height="50" relative="1" as="geometry">
            <mxPoint x="1820.0000000000005" y="-60" as="sourcePoint" />
            <mxPoint x="2160" y="-60" as="targetPoint" />
          </mxGeometry>
        </mxCell>
        <mxCell id="0IvkRlyViA5ZiD1WAOKp-233" value="" style="endArrow=none;html=1;rounded=0;exitX=0.008;exitY=0.584;exitDx=0;exitDy=0;exitPerimeter=0;" edge="1" parent="1">
          <mxGeometry width="50" height="50" relative="1" as="geometry">
            <mxPoint x="-409" y="249.69" as="sourcePoint" />
            <mxPoint x="-250" y="249.44" as="targetPoint" />
          </mxGeometry>
        </mxCell>
        <mxCell id="0IvkRlyViA5ZiD1WAOKp-234" value="" style="endArrow=none;html=1;rounded=0;exitX=0.008;exitY=0.584;exitDx=0;exitDy=0;entryX=0.99;entryY=0.58;entryDx=0;entryDy=0;entryPerimeter=0;exitPerimeter=0;" edge="1" parent="1">
          <mxGeometry width="50" height="50" relative="1" as="geometry">
            <mxPoint x="751.4400000000002" y="250.44" as="sourcePoint" />
            <mxPoint x="908.5600000000001" y="249.99999999999994" as="targetPoint" />
          </mxGeometry>
        </mxCell>
        <mxCell id="0IvkRlyViA5ZiD1WAOKp-236" value="CPF Community Forum &#xa;&#xa;Tania Verghese&#xa;&#xa;R300 000" style="whiteSpace=wrap;rounded=0;shadow=1;fontStyle=1;fontSize=14;verticalAlign=top;" vertex="1" parent="1">
          <mxGeometry x="1910" y="170" width="160" height="110" as="geometry" />
        </mxCell>
        <mxCell id="0IvkRlyViA5ZiD1WAOKp-237" value="" style="endArrow=none;html=1;rounded=0;exitX=0.008;exitY=0.584;exitDx=0;exitDy=0;entryX=0.99;entryY=0.58;entryDx=0;entryDy=0;entryPerimeter=0;exitPerimeter=0;" edge="1" parent="1">
          <mxGeometry width="50" height="50" relative="1" as="geometry">
            <mxPoint x="1911.44" y="215.06" as="sourcePoint" />
            <mxPoint x="2068.56" y="214.61999999999995" as="targetPoint" />
          </mxGeometry>
        </mxCell>
        <mxCell id="0IvkRlyViA5ZiD1WAOKp-238" value="" style="endArrow=none;html=1;rounded=0;exitX=0.008;exitY=0.584;exitDx=0;exitDy=0;entryX=0.99;entryY=0.58;entryDx=0;entryDy=0;entryPerimeter=0;exitPerimeter=0;" edge="1" parent="1">
          <mxGeometry width="50" height="50" relative="1" as="geometry">
            <mxPoint x="1911.44" y="250.44" as="sourcePoint" />
            <mxPoint x="2068.56" y="249.99999999999994" as="targetPoint" />
          </mxGeometry>
        </mxCell>
        <mxCell id="0IvkRlyViA5ZiD1WAOKp-239" value="Interactive Crime Map&#xa;&#xa;Jadin Naicker&#xa;&#xa;R500 000" style="whiteSpace=wrap;rounded=0;shadow=1;fontStyle=1;fontSize=14;verticalAlign=top;" vertex="1" parent="1">
          <mxGeometry x="3080" y="170" width="160" height="110" as="geometry" />
        </mxCell>
        <mxCell id="0IvkRlyViA5ZiD1WAOKp-240" value="" style="endArrow=none;html=1;rounded=0;exitX=0.008;exitY=0.584;exitDx=0;exitDy=0;entryX=0.99;entryY=0.58;entryDx=0;entryDy=0;entryPerimeter=0;exitPerimeter=0;" edge="1" parent="1">
          <mxGeometry width="50" height="50" relative="1" as="geometry">
            <mxPoint x="3081.44" y="200.44" as="sourcePoint" />
            <mxPoint x="3238.56" y="199.99999999999994" as="targetPoint" />
          </mxGeometry>
        </mxCell>
        <mxCell id="0IvkRlyViA5ZiD1WAOKp-241" value="" style="endArrow=none;html=1;rounded=0;exitX=0.008;exitY=0.584;exitDx=0;exitDy=0;entryX=0.99;entryY=0.58;entryDx=0;entryDy=0;entryPerimeter=0;exitPerimeter=0;" edge="1" parent="1">
          <mxGeometry width="50" height="50" relative="1" as="geometry">
            <mxPoint x="3081.44" y="240.44" as="sourcePoint" />
            <mxPoint x="3238.56" y="239.99999999999994" as="targetPoint" />
          </mxGeometry>
        </mxCell>
        <mxCell id="0IvkRlyViA5ZiD1WAOKp-242" value="Safety Tips &amp; Learning Hub&#xa;&#xa;Felicia Jagdeo&#xa;&#xa;R325 000" style="whiteSpace=wrap;rounded=0;shadow=1;fontStyle=1;fontSize=14;verticalAlign=top;" vertex="1" parent="1">
          <mxGeometry x="4200" y="170" width="160" height="110" as="geometry" />
        </mxCell>
        <mxCell id="0IvkRlyViA5ZiD1WAOKp-243" value="" style="endArrow=none;html=1;rounded=0;exitX=0.008;exitY=0.584;exitDx=0;exitDy=0;entryX=0.99;entryY=0.58;entryDx=0;entryDy=0;entryPerimeter=0;exitPerimeter=0;" edge="1" parent="1">
          <mxGeometry width="50" height="50" relative="1" as="geometry">
            <mxPoint x="4201.4400000000005" y="215.06" as="sourcePoint" />
            <mxPoint x="4358.5599999999995" y="214.61999999999995" as="targetPoint" />
          </mxGeometry>
        </mxCell>
        <mxCell id="0IvkRlyViA5ZiD1WAOKp-244" value="" style="endArrow=none;html=1;rounded=0;exitX=0.008;exitY=0.584;exitDx=0;exitDy=0;entryX=0.99;entryY=0.58;entryDx=0;entryDy=0;entryPerimeter=0;exitPerimeter=0;" edge="1" parent="1">
          <mxGeometry width="50" height="50" relative="1" as="geometry">
            <mxPoint x="4201.4400000000005" y="250.44" as="sourcePoint" />
            <mxPoint x="4358.5599999999995" y="249.99999999999994" as="targetPoint" />
          </mxGeometry>
        </mxCell>
        <mxCell id="0IvkRlyViA5ZiD1WAOKp-247" value="" style="endArrow=none;html=1;rounded=0;exitX=0;exitY=0.5;exitDx=0;exitDy=0;entryX=1;entryY=0.5;entryDx=0;entryDy=0;" edge="1" parent="1">
          <mxGeometry width="50" height="50" relative="1" as="geometry">
            <mxPoint x="-674.0000000000001" y="469.9999999999998" as="sourcePoint" />
            <mxPoint x="-554.0000000000001" y="469.9999999999998" as="targetPoint" />
          </mxGeometry>
        </mxCell>
        <mxCell id="0IvkRlyViA5ZiD1WAOKp-248" value="Build, Test &amp; Launch Alerts&#xa;&#xa;Jose Gonzalves&#xa;&#xa;R210 000" style="whiteSpace=wrap;rounded=0;shadow=1;fontStyle=0;verticalAlign=top;" vertex="1" parent="1">
          <mxGeometry x="-110" y="400" width="120" height="100" as="geometry" />
        </mxCell>
        <mxCell id="0IvkRlyViA5ZiD1WAOKp-249" value="" style="endArrow=none;html=1;rounded=0;exitX=0;exitY=0.5;exitDx=0;exitDy=0;entryX=1;entryY=0.5;entryDx=0;entryDy=0;" edge="1" parent="1">
          <mxGeometry width="50" height="50" relative="1" as="geometry">
            <mxPoint x="-110.00000000000011" y="442.9999999999998" as="sourcePoint" />
            <mxPoint x="9.999999999999886" y="442.9999999999998" as="targetPoint" />
          </mxGeometry>
        </mxCell>
        <mxCell id="0IvkRlyViA5ZiD1WAOKp-250" value="" style="endArrow=none;html=1;rounded=0;exitX=0;exitY=0.5;exitDx=0;exitDy=0;entryX=1;entryY=0.5;entryDx=0;entryDy=0;" edge="1" parent="1">
          <mxGeometry width="50" height="50" relative="1" as="geometry">
            <mxPoint x="-110.00000000000011" y="469.9999999999998" as="sourcePoint" />
            <mxPoint x="9.999999999999886" y="469.9999999999998" as="targetPoint" />
          </mxGeometry>
        </mxCell>
        <mxCell id="0IvkRlyViA5ZiD1WAOKp-251" value="Design SOS Flow &amp; Contacts&#xa;&#xa;Ayushkar Rami&#xa;&#xa;R110 000" style="whiteSpace=wrap;rounded=0;shadow=1;fontStyle=0;verticalAlign=top;" vertex="1" parent="1">
          <mxGeometry x="460" y="400" width="120" height="100" as="geometry" />
        </mxCell>
        <mxCell id="0IvkRlyViA5ZiD1WAOKp-252" value="" style="endArrow=none;html=1;rounded=0;exitX=0;exitY=0.5;exitDx=0;exitDy=0;entryX=1;entryY=0.5;entryDx=0;entryDy=0;" edge="1" parent="1">
          <mxGeometry width="50" height="50" relative="1" as="geometry">
            <mxPoint x="459.9999999999999" y="442.9999999999998" as="sourcePoint" />
            <mxPoint x="579.9999999999999" y="442.9999999999998" as="targetPoint" />
          </mxGeometry>
        </mxCell>
        <mxCell id="0IvkRlyViA5ZiD1WAOKp-253" value="" style="endArrow=none;html=1;rounded=0;exitX=0;exitY=0.5;exitDx=0;exitDy=0;entryX=1;entryY=0.5;entryDx=0;entryDy=0;" edge="1" parent="1">
          <mxGeometry width="50" height="50" relative="1" as="geometry">
            <mxPoint x="459.9999999999999" y="469.9999999999998" as="sourcePoint" />
            <mxPoint x="579.9999999999999" y="469.9999999999998" as="targetPoint" />
          </mxGeometry>
        </mxCell>
        <mxCell id="0IvkRlyViA5ZiD1WAOKp-254" value="Build, Test &amp; Drill SOS&#xa;&#xa;John Terry&#xa;&#xa;R165 000" style="whiteSpace=wrap;rounded=0;shadow=1;fontStyle=0;verticalAlign=top;" vertex="1" parent="1">
          <mxGeometry x="1070" y="400" width="120" height="100" as="geometry" />
        </mxCell>
        <mxCell id="0IvkRlyViA5ZiD1WAOKp-255" value="" style="endArrow=none;html=1;rounded=0;exitX=0;exitY=0.5;exitDx=0;exitDy=0;entryX=1;entryY=0.5;entryDx=0;entryDy=0;" edge="1" parent="1">
          <mxGeometry width="50" height="50" relative="1" as="geometry">
            <mxPoint x="1070" y="442.9999999999998" as="sourcePoint" />
            <mxPoint x="1190" y="442.9999999999998" as="targetPoint" />
          </mxGeometry>
        </mxCell>
        <mxCell id="0IvkRlyViA5ZiD1WAOKp-256" value="" style="endArrow=none;html=1;rounded=0;exitX=0;exitY=0.5;exitDx=0;exitDy=0;entryX=1;entryY=0.5;entryDx=0;entryDy=0;" edge="1" parent="1">
          <mxGeometry width="50" height="50" relative="1" as="geometry">
            <mxPoint x="1070" y="469.9999999999998" as="sourcePoint" />
            <mxPoint x="1190" y="469.9999999999998" as="targetPoint" />
          </mxGeometry>
        </mxCell>
        <mxCell id="0IvkRlyViA5ZiD1WAOKp-257" value="Plan Forum &amp; Moderation&#xa;&#xa;Tania Verghese&#xa;&#xa;R120 000" style="whiteSpace=wrap;rounded=0;shadow=1;fontStyle=0;verticalAlign=top;" vertex="1" parent="1">
          <mxGeometry x="1660" y="400" width="120" height="100" as="geometry" />
        </mxCell>
        <mxCell id="0IvkRlyViA5ZiD1WAOKp-258" value="" style="endArrow=none;html=1;rounded=0;exitX=0;exitY=0.5;exitDx=0;exitDy=0;entryX=1;entryY=0.5;entryDx=0;entryDy=0;" edge="1" parent="1">
          <mxGeometry width="50" height="50" relative="1" as="geometry">
            <mxPoint x="1660" y="442.9999999999998" as="sourcePoint" />
            <mxPoint x="1780" y="442.9999999999998" as="targetPoint" />
          </mxGeometry>
        </mxCell>
        <mxCell id="0IvkRlyViA5ZiD1WAOKp-259" value="" style="endArrow=none;html=1;rounded=0;exitX=0;exitY=0.5;exitDx=0;exitDy=0;entryX=1;entryY=0.5;entryDx=0;entryDy=0;" edge="1" parent="1">
          <mxGeometry width="50" height="50" relative="1" as="geometry">
            <mxPoint x="1660" y="474.5599999999998" as="sourcePoint" />
            <mxPoint x="1780" y="474.5599999999998" as="targetPoint" />
          </mxGeometry>
        </mxCell>
        <mxCell id="0IvkRlyViA5ZiD1WAOKp-262" value="Build Chat Module&#xa;&#xa;&#xa;Thiago Silva&#xa;&#xa;R180 000" style="whiteSpace=wrap;rounded=0;shadow=1;fontStyle=0;verticalAlign=top;" vertex="1" parent="1">
          <mxGeometry x="2218" y="390" width="120" height="110" as="geometry" />
        </mxCell>
        <mxCell id="0IvkRlyViA5ZiD1WAOKp-263" value="" style="endArrow=none;html=1;rounded=0;exitX=0;exitY=0.5;exitDx=0;exitDy=0;entryX=1;entryY=0.5;entryDx=0;entryDy=0;" edge="1" parent="1">
          <mxGeometry width="50" height="50" relative="1" as="geometry">
            <mxPoint x="2218" y="429.9999999999998" as="sourcePoint" />
            <mxPoint x="2338" y="429.9999999999998" as="targetPoint" />
          </mxGeometry>
        </mxCell>
        <mxCell id="0IvkRlyViA5ZiD1WAOKp-264" value="" style="endArrow=none;html=1;rounded=0;exitX=0;exitY=0.5;exitDx=0;exitDy=0;entryX=1;entryY=0.5;entryDx=0;entryDy=0;" edge="1" parent="1">
          <mxGeometry width="50" height="50" relative="1" as="geometry">
            <mxPoint x="2218" y="459.9999999999998" as="sourcePoint" />
            <mxPoint x="2338" y="459.9999999999998" as="targetPoint" />
          </mxGeometry>
        </mxCell>
        <mxCell id="0IvkRlyViA5ZiD1WAOKp-266" value="Gather Data &amp; Design Map&#xa;&#xa;Jadin Naicker&#xa;&#xa;R200 000" style="whiteSpace=wrap;rounded=0;shadow=1;fontStyle=0;verticalAlign=top;" vertex="1" parent="1">
          <mxGeometry x="2790" y="400" width="120" height="100" as="geometry" />
        </mxCell>
        <mxCell id="0IvkRlyViA5ZiD1WAOKp-267" value="" style="endArrow=none;html=1;rounded=0;exitX=0;exitY=0.5;exitDx=0;exitDy=0;entryX=1;entryY=0.5;entryDx=0;entryDy=0;" edge="1" parent="1">
          <mxGeometry width="50" height="50" relative="1" as="geometry">
            <mxPoint x="2790" y="442.9999999999998" as="sourcePoint" />
            <mxPoint x="2910" y="442.9999999999998" as="targetPoint" />
          </mxGeometry>
        </mxCell>
        <mxCell id="0IvkRlyViA5ZiD1WAOKp-268" value="" style="endArrow=none;html=1;rounded=0;exitX=0;exitY=0.5;exitDx=0;exitDy=0;entryX=1;entryY=0.5;entryDx=0;entryDy=0;" edge="1" parent="1">
          <mxGeometry width="50" height="50" relative="1" as="geometry">
            <mxPoint x="2790" y="469.9999999999998" as="sourcePoint" />
            <mxPoint x="2910" y="469.9999999999998" as="targetPoint" />
          </mxGeometry>
        </mxCell>
        <mxCell id="0IvkRlyViA5ZiD1WAOKp-272" value="Develop Map&#xa;&#xa;Ashley Cole&#xa;&#xa;R300 000" style="whiteSpace=wrap;rounded=0;shadow=1;fontStyle=0;verticalAlign=top;" vertex="1" parent="1">
          <mxGeometry x="3340" y="390" width="120" height="90" as="geometry" />
        </mxCell>
        <mxCell id="0IvkRlyViA5ZiD1WAOKp-273" value="" style="endArrow=none;html=1;rounded=0;exitX=0;exitY=0.5;exitDx=0;exitDy=0;entryX=1;entryY=0.5;entryDx=0;entryDy=0;" edge="1" parent="1">
          <mxGeometry width="50" height="50" relative="1" as="geometry">
            <mxPoint x="3340" y="417.8099999999998" as="sourcePoint" />
            <mxPoint x="3460" y="417.8099999999998" as="targetPoint" />
          </mxGeometry>
        </mxCell>
        <mxCell id="0IvkRlyViA5ZiD1WAOKp-274" value="" style="endArrow=none;html=1;rounded=0;exitX=0;exitY=0.5;exitDx=0;exitDy=0;entryX=1;entryY=0.5;entryDx=0;entryDy=0;" edge="1" parent="1">
          <mxGeometry width="50" height="50" relative="1" as="geometry">
            <mxPoint x="3340" y="449.9999999999998" as="sourcePoint" />
            <mxPoint x="3460" y="449.9999999999998" as="targetPoint" />
          </mxGeometry>
        </mxCell>
        <mxCell id="0IvkRlyViA5ZiD1WAOKp-282" value="Collect &amp; Write Content&#xa;&#xa;Felicia Jagdeo&#xa;&#xa;R130 000" style="whiteSpace=wrap;rounded=0;shadow=1;fontStyle=0;verticalAlign=top;" vertex="1" parent="1">
          <mxGeometry x="3940" y="385" width="120" height="105" as="geometry" />
        </mxCell>
        <mxCell id="0IvkRlyViA5ZiD1WAOKp-283" value="" style="endArrow=none;html=1;rounded=0;exitX=0;exitY=0.5;exitDx=0;exitDy=0;entryX=1;entryY=0.5;entryDx=0;entryDy=0;" edge="1" parent="1">
          <mxGeometry width="50" height="50" relative="1" as="geometry">
            <mxPoint x="3940" y="427.4999999999998" as="sourcePoint" />
            <mxPoint x="4060" y="427.4999999999998" as="targetPoint" />
          </mxGeometry>
        </mxCell>
        <mxCell id="0IvkRlyViA5ZiD1WAOKp-284" value="" style="endArrow=none;html=1;rounded=0;exitX=0;exitY=0.5;exitDx=0;exitDy=0;entryX=1;entryY=0.5;entryDx=0;entryDy=0;" edge="1" parent="1">
          <mxGeometry width="50" height="50" relative="1" as="geometry">
            <mxPoint x="3940" y="459.9999999999998" as="sourcePoint" />
            <mxPoint x="4060" y="459.9999999999998" as="targetPoint" />
          </mxGeometry>
        </mxCell>
        <mxCell id="0IvkRlyViA5ZiD1WAOKp-286" value="Develop &amp; Promote Hub&#xa;&#xa;Roman Abromavich&#xa;&#xa;R195 000" style="whiteSpace=wrap;rounded=0;shadow=1;fontStyle=0;verticalAlign=top;" vertex="1" parent="1">
          <mxGeometry x="4540" y="385" width="120" height="105" as="geometry" />
        </mxCell>
        <mxCell id="0IvkRlyViA5ZiD1WAOKp-287" value="" style="endArrow=none;html=1;rounded=0;exitX=0;exitY=0.5;exitDx=0;exitDy=0;entryX=1;entryY=0.5;entryDx=0;entryDy=0;" edge="1" parent="1">
          <mxGeometry width="50" height="50" relative="1" as="geometry">
            <mxPoint x="4540" y="427.4999999999998" as="sourcePoint" />
            <mxPoint x="4660" y="427.4999999999998" as="targetPoint" />
          </mxGeometry>
        </mxCell>
        <mxCell id="0IvkRlyViA5ZiD1WAOKp-288" value="" style="endArrow=none;html=1;rounded=0;exitX=0;exitY=0.5;exitDx=0;exitDy=0;entryX=1;entryY=0.5;entryDx=0;entryDy=0;" edge="1" parent="1">
          <mxGeometry width="50" height="50" relative="1" as="geometry">
            <mxPoint x="4540" y="459.9999999999998" as="sourcePoint" />
            <mxPoint x="4660" y="459.9999999999998" as="targetPoint" />
          </mxGeometry>
        </mxCell>
        <mxCell id="0IvkRlyViA5ZiD1WAOKp-289" value="" style="endArrow=none;html=1;rounded=0;exitX=0;exitY=0.5;exitDx=0;exitDy=0;entryX=1;entryY=0.5;entryDx=0;entryDy=0;" edge="1" parent="1">
          <mxGeometry width="50" height="50" relative="1" as="geometry">
            <mxPoint x="-860" y="650" as="sourcePoint" />
            <mxPoint x="-740" y="650" as="targetPoint" />
          </mxGeometry>
        </mxCell>
        <mxCell id="0IvkRlyViA5ZiD1WAOKp-290" value="" style="endArrow=none;html=1;rounded=0;exitX=0;exitY=0.5;exitDx=0;exitDy=0;entryX=1;entryY=0.5;entryDx=0;entryDy=0;" edge="1" parent="1">
          <mxGeometry width="50" height="50" relative="1" as="geometry">
            <mxPoint x="-674" y="640" as="sourcePoint" />
            <mxPoint x="-554" y="640" as="targetPoint" />
          </mxGeometry>
        </mxCell>
        <mxCell id="0IvkRlyViA5ZiD1WAOKp-291" value="" style="endArrow=none;html=1;rounded=0;exitX=0;exitY=0.5;exitDx=0;exitDy=0;entryX=1;entryY=0.5;entryDx=0;entryDy=0;" edge="1" parent="1">
          <mxGeometry width="50" height="50" relative="1" as="geometry">
            <mxPoint x="-494" y="640" as="sourcePoint" />
            <mxPoint x="-374" y="640" as="targetPoint" />
          </mxGeometry>
        </mxCell>
        <mxCell id="0IvkRlyViA5ZiD1WAOKp-292" value="" style="endArrow=none;html=1;rounded=0;exitX=0;exitY=0.5;exitDx=0;exitDy=0;entryX=1;entryY=0.5;entryDx=0;entryDy=0;" edge="1" parent="1">
          <mxGeometry width="50" height="50" relative="1" as="geometry">
            <mxPoint x="-290" y="640" as="sourcePoint" />
            <mxPoint x="-170" y="640" as="targetPoint" />
          </mxGeometry>
        </mxCell>
        <mxCell id="0IvkRlyViA5ZiD1WAOKp-293" value="" style="endArrow=none;html=1;rounded=0;exitX=0;exitY=0.5;exitDx=0;exitDy=0;entryX=1;entryY=0.5;entryDx=0;entryDy=0;" edge="1" parent="1">
          <mxGeometry width="50" height="50" relative="1" as="geometry">
            <mxPoint x="-110" y="640" as="sourcePoint" />
            <mxPoint x="10" y="640" as="targetPoint" />
          </mxGeometry>
        </mxCell>
        <mxCell id="0IvkRlyViA5ZiD1WAOKp-294" value="" style="endArrow=none;html=1;rounded=0;exitX=0;exitY=0.5;exitDx=0;exitDy=0;entryX=1;entryY=0.5;entryDx=0;entryDy=0;" edge="1" parent="1">
          <mxGeometry width="50" height="50" relative="1" as="geometry">
            <mxPoint x="76" y="640" as="sourcePoint" />
            <mxPoint x="196" y="640" as="targetPoint" />
          </mxGeometry>
        </mxCell>
        <mxCell id="0IvkRlyViA5ZiD1WAOKp-295" value="" style="endArrow=none;html=1;rounded=0;exitX=0;exitY=0.5;exitDx=0;exitDy=0;entryX=1;entryY=0.5;entryDx=0;entryDy=0;" edge="1" parent="1">
          <mxGeometry width="50" height="50" relative="1" as="geometry">
            <mxPoint x="280" y="640" as="sourcePoint" />
            <mxPoint x="400" y="640" as="targetPoint" />
          </mxGeometry>
        </mxCell>
        <mxCell id="0IvkRlyViA5ZiD1WAOKp-296" value="" style="endArrow=none;html=1;rounded=0;exitX=0;exitY=0.5;exitDx=0;exitDy=0;entryX=1;entryY=0.5;entryDx=0;entryDy=0;" edge="1" parent="1">
          <mxGeometry width="50" height="50" relative="1" as="geometry">
            <mxPoint x="460" y="640" as="sourcePoint" />
            <mxPoint x="580" y="640" as="targetPoint" />
          </mxGeometry>
        </mxCell>
        <mxCell id="0IvkRlyViA5ZiD1WAOKp-297" value="" style="endArrow=none;html=1;rounded=0;exitX=0;exitY=0.5;exitDx=0;exitDy=0;entryX=1;entryY=0.5;entryDx=0;entryDy=0;" edge="1" parent="1">
          <mxGeometry width="50" height="50" relative="1" as="geometry">
            <mxPoint x="650" y="640" as="sourcePoint" />
            <mxPoint x="770" y="640" as="targetPoint" />
          </mxGeometry>
        </mxCell>
        <mxCell id="0IvkRlyViA5ZiD1WAOKp-298" value="" style="endArrow=none;html=1;rounded=0;exitX=0;exitY=0.5;exitDx=0;exitDy=0;entryX=1;entryY=0.5;entryDx=0;entryDy=0;" edge="1" parent="1">
          <mxGeometry width="50" height="50" relative="1" as="geometry">
            <mxPoint x="860" y="640" as="sourcePoint" />
            <mxPoint x="980" y="640" as="targetPoint" />
          </mxGeometry>
        </mxCell>
        <mxCell id="0IvkRlyViA5ZiD1WAOKp-299" value="" style="endArrow=none;html=1;rounded=0;exitX=0;exitY=0.5;exitDx=0;exitDy=0;entryX=1;entryY=0.5;entryDx=0;entryDy=0;" edge="1" parent="1">
          <mxGeometry width="50" height="50" relative="1" as="geometry">
            <mxPoint x="1070" y="640" as="sourcePoint" />
            <mxPoint x="1190" y="640" as="targetPoint" />
          </mxGeometry>
        </mxCell>
        <mxCell id="0IvkRlyViA5ZiD1WAOKp-300" value="" style="endArrow=none;html=1;rounded=0;exitX=0;exitY=0.5;exitDx=0;exitDy=0;entryX=1;entryY=0.5;entryDx=0;entryDy=0;" edge="1" parent="1">
          <mxGeometry width="50" height="50" relative="1" as="geometry">
            <mxPoint x="1256" y="640" as="sourcePoint" />
            <mxPoint x="1376" y="640" as="targetPoint" />
          </mxGeometry>
        </mxCell>
        <mxCell id="0IvkRlyViA5ZiD1WAOKp-301" value="" style="endArrow=none;html=1;rounded=0;exitX=0;exitY=0.5;exitDx=0;exitDy=0;entryX=1;entryY=0.5;entryDx=0;entryDy=0;" edge="1" parent="1">
          <mxGeometry width="50" height="50" relative="1" as="geometry">
            <mxPoint x="1480" y="640" as="sourcePoint" />
            <mxPoint x="1600" y="640" as="targetPoint" />
          </mxGeometry>
        </mxCell>
        <mxCell id="0IvkRlyViA5ZiD1WAOKp-302" value="" style="endArrow=none;html=1;rounded=0;exitX=0;exitY=0.5;exitDx=0;exitDy=0;entryX=1;entryY=0.5;entryDx=0;entryDy=0;" edge="1" parent="1">
          <mxGeometry width="50" height="50" relative="1" as="geometry">
            <mxPoint x="1660" y="640" as="sourcePoint" />
            <mxPoint x="1780" y="640" as="targetPoint" />
          </mxGeometry>
        </mxCell>
        <mxCell id="0IvkRlyViA5ZiD1WAOKp-303" value="" style="endArrow=none;html=1;rounded=0;exitX=0;exitY=0.5;exitDx=0;exitDy=0;entryX=1;entryY=0.5;entryDx=0;entryDy=0;" edge="1" parent="1">
          <mxGeometry width="50" height="50" relative="1" as="geometry">
            <mxPoint x="1840" y="640" as="sourcePoint" />
            <mxPoint x="1960" y="640" as="targetPoint" />
          </mxGeometry>
        </mxCell>
        <mxCell id="0IvkRlyViA5ZiD1WAOKp-304" value="" style="endArrow=none;html=1;rounded=0;exitX=0;exitY=0.5;exitDx=0;exitDy=0;entryX=1;entryY=0.5;entryDx=0;entryDy=0;" edge="1" parent="1">
          <mxGeometry width="50" height="50" relative="1" as="geometry">
            <mxPoint x="2040" y="640" as="sourcePoint" />
            <mxPoint x="2160" y="640" as="targetPoint" />
          </mxGeometry>
        </mxCell>
        <mxCell id="0IvkRlyViA5ZiD1WAOKp-305" value="" style="endArrow=none;html=1;rounded=0;exitX=0;exitY=0.5;exitDx=0;exitDy=0;entryX=1;entryY=0.5;entryDx=0;entryDy=0;" edge="1" parent="1">
          <mxGeometry width="50" height="50" relative="1" as="geometry">
            <mxPoint x="2218" y="640" as="sourcePoint" />
            <mxPoint x="2338" y="640" as="targetPoint" />
          </mxGeometry>
        </mxCell>
        <mxCell id="0IvkRlyViA5ZiD1WAOKp-306" value="" style="endArrow=none;html=1;rounded=0;exitX=0;exitY=0.5;exitDx=0;exitDy=0;entryX=1;entryY=0.5;entryDx=0;entryDy=0;" edge="1" parent="1">
          <mxGeometry width="50" height="50" relative="1" as="geometry">
            <mxPoint x="2400" y="640" as="sourcePoint" />
            <mxPoint x="2520" y="640" as="targetPoint" />
          </mxGeometry>
        </mxCell>
        <mxCell id="0IvkRlyViA5ZiD1WAOKp-307" value="" style="endArrow=none;html=1;rounded=0;exitX=0;exitY=0.5;exitDx=0;exitDy=0;entryX=1;entryY=0.5;entryDx=0;entryDy=0;" edge="1" parent="1">
          <mxGeometry width="50" height="50" relative="1" as="geometry">
            <mxPoint x="2610" y="640" as="sourcePoint" />
            <mxPoint x="2730" y="640" as="targetPoint" />
          </mxGeometry>
        </mxCell>
        <mxCell id="0IvkRlyViA5ZiD1WAOKp-308" value="" style="endArrow=none;html=1;rounded=0;exitX=0;exitY=0.5;exitDx=0;exitDy=0;entryX=1;entryY=0.5;entryDx=0;entryDy=0;" edge="1" parent="1">
          <mxGeometry width="50" height="50" relative="1" as="geometry">
            <mxPoint x="2790" y="640" as="sourcePoint" />
            <mxPoint x="2910" y="640" as="targetPoint" />
          </mxGeometry>
        </mxCell>
        <mxCell id="0IvkRlyViA5ZiD1WAOKp-309" value="" style="endArrow=none;html=1;rounded=0;exitX=0;exitY=0.5;exitDx=0;exitDy=0;entryX=1;entryY=0.5;entryDx=0;entryDy=0;" edge="1" parent="1">
          <mxGeometry width="50" height="50" relative="1" as="geometry">
            <mxPoint x="2970" y="640" as="sourcePoint" />
            <mxPoint x="3090" y="640" as="targetPoint" />
          </mxGeometry>
        </mxCell>
        <mxCell id="0IvkRlyViA5ZiD1WAOKp-310" value="" style="endArrow=none;html=1;rounded=0;exitX=0;exitY=0.5;exitDx=0;exitDy=0;entryX=1;entryY=0.5;entryDx=0;entryDy=0;" edge="1" parent="1">
          <mxGeometry width="50" height="50" relative="1" as="geometry">
            <mxPoint x="3160" y="640" as="sourcePoint" />
            <mxPoint x="3280" y="640" as="targetPoint" />
          </mxGeometry>
        </mxCell>
        <mxCell id="0IvkRlyViA5ZiD1WAOKp-311" value="" style="endArrow=none;html=1;rounded=0;exitX=0;exitY=0.5;exitDx=0;exitDy=0;entryX=1;entryY=0.5;entryDx=0;entryDy=0;" edge="1" parent="1">
          <mxGeometry width="50" height="50" relative="1" as="geometry">
            <mxPoint x="3337" y="640" as="sourcePoint" />
            <mxPoint x="3457" y="640" as="targetPoint" />
          </mxGeometry>
        </mxCell>
        <mxCell id="0IvkRlyViA5ZiD1WAOKp-312" value="" style="endArrow=none;html=1;rounded=0;exitX=0;exitY=0.5;exitDx=0;exitDy=0;entryX=1;entryY=0.5;entryDx=0;entryDy=0;" edge="1" parent="1">
          <mxGeometry width="50" height="50" relative="1" as="geometry">
            <mxPoint x="3520" y="640" as="sourcePoint" />
            <mxPoint x="3640" y="640" as="targetPoint" />
          </mxGeometry>
        </mxCell>
        <mxCell id="0IvkRlyViA5ZiD1WAOKp-313" value="" style="endArrow=none;html=1;rounded=0;exitX=0;exitY=0.5;exitDx=0;exitDy=0;entryX=1;entryY=0.5;entryDx=0;entryDy=0;" edge="1" parent="1">
          <mxGeometry width="50" height="50" relative="1" as="geometry">
            <mxPoint x="3760" y="640" as="sourcePoint" />
            <mxPoint x="3880" y="640" as="targetPoint" />
          </mxGeometry>
        </mxCell>
        <mxCell id="0IvkRlyViA5ZiD1WAOKp-314" value="" style="endArrow=none;html=1;rounded=0;exitX=0;exitY=0.5;exitDx=0;exitDy=0;entryX=1;entryY=0.5;entryDx=0;entryDy=0;" edge="1" parent="1">
          <mxGeometry width="50" height="50" relative="1" as="geometry">
            <mxPoint x="3940" y="640" as="sourcePoint" />
            <mxPoint x="4060" y="640" as="targetPoint" />
          </mxGeometry>
        </mxCell>
        <mxCell id="0IvkRlyViA5ZiD1WAOKp-315" value="" style="endArrow=none;html=1;rounded=0;exitX=0;exitY=0.5;exitDx=0;exitDy=0;entryX=1;entryY=0.5;entryDx=0;entryDy=0;" edge="1" parent="1">
          <mxGeometry width="50" height="50" relative="1" as="geometry">
            <mxPoint x="4120" y="640" as="sourcePoint" />
            <mxPoint x="4240" y="640" as="targetPoint" />
          </mxGeometry>
        </mxCell>
        <mxCell id="0IvkRlyViA5ZiD1WAOKp-316" value="" style="endArrow=none;html=1;rounded=0;exitX=0;exitY=0.5;exitDx=0;exitDy=0;entryX=1;entryY=0.5;entryDx=0;entryDy=0;" edge="1" parent="1">
          <mxGeometry width="50" height="50" relative="1" as="geometry">
            <mxPoint x="4350" y="640" as="sourcePoint" />
            <mxPoint x="4470" y="640" as="targetPoint" />
          </mxGeometry>
        </mxCell>
        <mxCell id="0IvkRlyViA5ZiD1WAOKp-317" value="" style="endArrow=none;html=1;rounded=0;exitX=0;exitY=0.5;exitDx=0;exitDy=0;entryX=1;entryY=0.5;entryDx=0;entryDy=0;" edge="1" parent="1">
          <mxGeometry width="50" height="50" relative="1" as="geometry">
            <mxPoint x="4540" y="640" as="sourcePoint" />
            <mxPoint x="4660" y="640" as="targetPoint" />
          </mxGeometry>
        </mxCell>
        <mxCell id="0IvkRlyViA5ZiD1WAOKp-318" value="" style="endArrow=none;html=1;rounded=0;exitX=0;exitY=0.5;exitDx=0;exitDy=0;entryX=1;entryY=0.5;entryDx=0;entryDy=0;" edge="1" parent="1">
          <mxGeometry width="50" height="50" relative="1" as="geometry">
            <mxPoint x="4730" y="640" as="sourcePoint" />
            <mxPoint x="4850" y="640" as="targetPoint" />
          </mxGeometry>
        </mxCell>
      </root>
    </mxGraphModel>
  </diagram>
</mxfile>
